G04 #@! TF.FileFunction,Legend,Top*
%FSLAX46Y46*%
G04 Gerber Fmt 4.6, Leading zero omitted, Abs format (unit mm)*
G04 Created by KiCad (PCBNEW 4.0.7) date *
%MOMM*%
%LPD*%
G01*
G04 APERTURE LIST*
%ADD10C,0.100000*%
%ADD11C,0.150000*%
%ADD12C,0.120000*%
%ADD13C,0.200000*%
%ADD14C,0.254000*%
G04 APERTURE END LIST*
D10*
D11*
X135445000Y-139320000D02*
X135445000Y-143765000D01*
X135445000Y-143765000D02*
X143065000Y-143765000D01*
X143065000Y-143765000D02*
X143065000Y-139320000D01*
X143065000Y-139320000D02*
X143065000Y-127255000D01*
X143065000Y-127255000D02*
X135445000Y-127255000D01*
X135445000Y-127255000D02*
X135445000Y-139320000D01*
X116395000Y-139320000D02*
X116395000Y-143765000D01*
X116395000Y-143765000D02*
X132905000Y-143765000D01*
X132905000Y-143765000D02*
X132905000Y-139320000D01*
X116395000Y-139320000D02*
X116395000Y-121540000D01*
X116395000Y-121540000D02*
X132905000Y-121540000D01*
X132905000Y-121540000D02*
X132905000Y-139320000D01*
X110680000Y-136780000D02*
X110680000Y-101220000D01*
X148780000Y-139320000D02*
X113220000Y-139320000D01*
X151320000Y-101220000D02*
X151320000Y-136780000D01*
X113220000Y-98680000D02*
X148780000Y-98680000D01*
X148780000Y-139320000D02*
G75*
G03X151320000Y-136780000I0J2540000D01*
G01*
X110680000Y-136780000D02*
G75*
G03X113220000Y-139320000I2540000J0D01*
G01*
X113220000Y-98680000D02*
G75*
G03X110680000Y-101220000I0J-2540000D01*
G01*
X151320000Y-101220000D02*
G75*
G03X148780000Y-98680000I-2540000J0D01*
G01*
D12*
X111264000Y-81010000D02*
X111264000Y-77810000D01*
X112764000Y-77810000D02*
X112764000Y-81010000D01*
X112764000Y-77810000D02*
X111264000Y-77810000D01*
X111264000Y-93710000D02*
X111264000Y-90510000D01*
X112764000Y-90510000D02*
X112764000Y-93710000D01*
X112764000Y-90510000D02*
X111264000Y-90510000D01*
D13*
X146400000Y-88000000D02*
X146400000Y-58500000D01*
X146400000Y-58500000D02*
X163600000Y-58500000D01*
X163600000Y-58500000D02*
X163600000Y-88000000D01*
X163600000Y-88000000D02*
X159837000Y-88000000D01*
X146400000Y-88000000D02*
X152733000Y-88000000D01*
D14*
X158910160Y-89298000D02*
G75*
G03X158910160Y-89298000I-63160J0D01*
G01*
D12*
X170050000Y-132860000D02*
X170050000Y-135190000D01*
X155060000Y-132860000D02*
X155060000Y-134980000D01*
X170050000Y-132860000D02*
X155060000Y-132860000D01*
X170050000Y-146950000D02*
X155060000Y-146950000D01*
X170050000Y-138150000D02*
X170050000Y-146950000D01*
X155060000Y-138350000D02*
X155060000Y-146950000D01*
X119950000Y-63730000D02*
X119350000Y-63730000D01*
X119350000Y-63730000D02*
X119150000Y-63530000D01*
X122150000Y-63530000D02*
X122150000Y-63730000D01*
X122150000Y-63730000D02*
X121350000Y-63730000D01*
X121350000Y-60730000D02*
X122150000Y-60730000D01*
X122150000Y-60730000D02*
X122150000Y-60930000D01*
X119150000Y-60930000D02*
X119150000Y-60730000D01*
X119150000Y-60730000D02*
X119950000Y-60730000D01*
X137730000Y-63730000D02*
X137130000Y-63730000D01*
X137130000Y-63730000D02*
X136930000Y-63530000D01*
X139930000Y-63530000D02*
X139930000Y-63730000D01*
X139930000Y-63730000D02*
X139130000Y-63730000D01*
X139130000Y-60730000D02*
X139930000Y-60730000D01*
X139930000Y-60730000D02*
X139930000Y-60930000D01*
X136930000Y-60930000D02*
X136930000Y-60730000D01*
X136930000Y-60730000D02*
X137730000Y-60730000D01*
X128840000Y-63730000D02*
X128240000Y-63730000D01*
X128240000Y-63730000D02*
X128040000Y-63530000D01*
X131040000Y-63530000D02*
X131040000Y-63730000D01*
X131040000Y-63730000D02*
X130240000Y-63730000D01*
X130240000Y-60730000D02*
X131040000Y-60730000D01*
X131040000Y-60730000D02*
X131040000Y-60930000D01*
X128040000Y-60930000D02*
X128040000Y-60730000D01*
X128040000Y-60730000D02*
X128840000Y-60730000D01*
X183600000Y-137000000D02*
X183600000Y-145800000D01*
X183600000Y-145800000D02*
X174400000Y-145800000D01*
X180900000Y-131100000D02*
X183600000Y-131100000D01*
X183600000Y-131100000D02*
X183600000Y-133000000D01*
X174400000Y-145800000D02*
X174400000Y-131100000D01*
X174400000Y-131100000D02*
X177000000Y-131100000D01*
D13*
X114490000Y-74580000D02*
X114490000Y-75280000D01*
X114490000Y-75280000D02*
X111570000Y-75280000D01*
X111570000Y-75280000D02*
X111570000Y-74580000D01*
X111570000Y-74580000D02*
X114490000Y-74580000D01*
X114535000Y-73230000D02*
X114535000Y-74230000D01*
X114460000Y-87650000D02*
X114460000Y-88350000D01*
X114460000Y-88350000D02*
X111540000Y-88350000D01*
X111540000Y-88350000D02*
X111540000Y-87650000D01*
X111540000Y-87650000D02*
X114460000Y-87650000D01*
X114505000Y-86300000D02*
X114505000Y-87300000D01*
X183070000Y-107600000D02*
X183070000Y-108300000D01*
X183070000Y-108300000D02*
X180150000Y-108300000D01*
X180150000Y-108300000D02*
X180150000Y-107600000D01*
X180150000Y-107600000D02*
X183070000Y-107600000D01*
X183115000Y-106250000D02*
X183115000Y-107250000D01*
D12*
X174400000Y-61120000D02*
X175600000Y-61120000D01*
X175600000Y-62880000D02*
X174400000Y-62880000D01*
X180730000Y-102200000D02*
X180730000Y-101000000D01*
X182490000Y-101000000D02*
X182490000Y-102200000D01*
X115434000Y-81442000D02*
X115434000Y-82642000D01*
X113674000Y-82642000D02*
X113674000Y-81442000D01*
X115688000Y-93126000D02*
X115688000Y-94326000D01*
X113928000Y-94326000D02*
X113928000Y-93126000D01*
D13*
X118310000Y-96050000D02*
X143310000Y-96050000D01*
X143310000Y-96050000D02*
X143310000Y-69050000D01*
X143310000Y-69050000D02*
X118310000Y-69050000D01*
X118310000Y-69050000D02*
X118310000Y-96050000D01*
D14*
X117828000Y-70823000D02*
G75*
G03X117828000Y-70823000I-97000J0D01*
G01*
D12*
X184210000Y-115510000D02*
X181550000Y-115510000D01*
X184210000Y-120650000D02*
X184210000Y-115510000D01*
X181550000Y-120650000D02*
X181550000Y-115510000D01*
X184210000Y-120650000D02*
X181550000Y-120650000D01*
X184210000Y-121920000D02*
X184210000Y-123250000D01*
X184210000Y-123250000D02*
X182880000Y-123250000D01*
D11*
X177800000Y-92202000D02*
X154686000Y-92202000D01*
X177800000Y-127254000D02*
X177800000Y-92202000D01*
X154686000Y-127254000D02*
X154686000Y-95250000D01*
X154686000Y-95250000D02*
X154686000Y-92202000D01*
X156210000Y-128778000D02*
X177800000Y-128778000D01*
X177800000Y-128778000D02*
X177800000Y-127254000D01*
X156210000Y-128778000D02*
X154686000Y-128778000D01*
X154686000Y-128778000D02*
X154686000Y-127254000D01*
X183240000Y-86160000D02*
X183240000Y-65840000D01*
X183240000Y-65840000D02*
X168000000Y-65840000D01*
X168000000Y-65840000D02*
X168000000Y-86160000D01*
X168000000Y-86160000D02*
X183240000Y-86160000D01*
X130238095Y-118452381D02*
X130238095Y-119261905D01*
X130285714Y-119357143D01*
X130333333Y-119404762D01*
X130428571Y-119452381D01*
X130619048Y-119452381D01*
X130714286Y-119404762D01*
X130761905Y-119357143D01*
X130809524Y-119261905D01*
X130809524Y-118452381D01*
X131190476Y-118452381D02*
X131809524Y-118452381D01*
X131476190Y-118833333D01*
X131619048Y-118833333D01*
X131714286Y-118880952D01*
X131761905Y-118928571D01*
X131809524Y-119023810D01*
X131809524Y-119261905D01*
X131761905Y-119357143D01*
X131714286Y-119404762D01*
X131619048Y-119452381D01*
X131333333Y-119452381D01*
X131238095Y-119404762D01*
X131190476Y-119357143D01*
X112466381Y-84050095D02*
X111466381Y-84050095D01*
X111466381Y-83812000D01*
X111514000Y-83669142D01*
X111609238Y-83573904D01*
X111704476Y-83526285D01*
X111894952Y-83478666D01*
X112037810Y-83478666D01*
X112228286Y-83526285D01*
X112323524Y-83573904D01*
X112418762Y-83669142D01*
X112466381Y-83812000D01*
X112466381Y-84050095D01*
X112466381Y-82526285D02*
X112466381Y-83097714D01*
X112466381Y-82812000D02*
X111466381Y-82812000D01*
X111609238Y-82907238D01*
X111704476Y-83002476D01*
X111752095Y-83097714D01*
X112466381Y-97004095D02*
X111466381Y-97004095D01*
X111466381Y-96766000D01*
X111514000Y-96623142D01*
X111609238Y-96527904D01*
X111704476Y-96480285D01*
X111894952Y-96432666D01*
X112037810Y-96432666D01*
X112228286Y-96480285D01*
X112323524Y-96527904D01*
X112418762Y-96623142D01*
X112466381Y-96766000D01*
X112466381Y-97004095D01*
X111561619Y-96051714D02*
X111514000Y-96004095D01*
X111466381Y-95908857D01*
X111466381Y-95670761D01*
X111514000Y-95575523D01*
X111561619Y-95527904D01*
X111656857Y-95480285D01*
X111752095Y-95480285D01*
X111894952Y-95527904D01*
X112466381Y-96099333D01*
X112466381Y-95480285D01*
D14*
X144610667Y-58994524D02*
X144610667Y-59901667D01*
X144550191Y-60083095D01*
X144429239Y-60204048D01*
X144247810Y-60264524D01*
X144126858Y-60264524D01*
X145880667Y-60264524D02*
X145154953Y-60264524D01*
X145517810Y-60264524D02*
X145517810Y-58994524D01*
X145396858Y-59175952D01*
X145275905Y-59296905D01*
X145154953Y-59357381D01*
D11*
X158666667Y-131102381D02*
X158666667Y-131816667D01*
X158619047Y-131959524D01*
X158523809Y-132054762D01*
X158380952Y-132102381D01*
X158285714Y-132102381D01*
X159095238Y-131197619D02*
X159142857Y-131150000D01*
X159238095Y-131102381D01*
X159476191Y-131102381D01*
X159571429Y-131150000D01*
X159619048Y-131197619D01*
X159666667Y-131292857D01*
X159666667Y-131388095D01*
X159619048Y-131530952D01*
X159047619Y-132102381D01*
X159666667Y-132102381D01*
X120316667Y-65238381D02*
X120316667Y-65952667D01*
X120269047Y-66095524D01*
X120173809Y-66190762D01*
X120030952Y-66238381D01*
X119935714Y-66238381D01*
X120697619Y-65238381D02*
X121316667Y-65238381D01*
X120983333Y-65619333D01*
X121126191Y-65619333D01*
X121221429Y-65666952D01*
X121269048Y-65714571D01*
X121316667Y-65809810D01*
X121316667Y-66047905D01*
X121269048Y-66143143D01*
X121221429Y-66190762D01*
X121126191Y-66238381D01*
X120840476Y-66238381D01*
X120745238Y-66190762D01*
X120697619Y-66143143D01*
X138096667Y-65238381D02*
X138096667Y-65952667D01*
X138049047Y-66095524D01*
X137953809Y-66190762D01*
X137810952Y-66238381D01*
X137715714Y-66238381D01*
X139001429Y-65571714D02*
X139001429Y-66238381D01*
X138763333Y-65190762D02*
X138525238Y-65905048D01*
X139144286Y-65905048D01*
X129206667Y-65238381D02*
X129206667Y-65952667D01*
X129159047Y-66095524D01*
X129063809Y-66190762D01*
X128920952Y-66238381D01*
X128825714Y-66238381D01*
X130159048Y-65238381D02*
X129682857Y-65238381D01*
X129635238Y-65714571D01*
X129682857Y-65666952D01*
X129778095Y-65619333D01*
X130016191Y-65619333D01*
X130111429Y-65666952D01*
X130159048Y-65714571D01*
X130206667Y-65809810D01*
X130206667Y-66047905D01*
X130159048Y-66143143D01*
X130111429Y-66190762D01*
X130016191Y-66238381D01*
X129778095Y-66238381D01*
X129682857Y-66190762D01*
X129635238Y-66143143D01*
X172680381Y-139525333D02*
X173394667Y-139525333D01*
X173537524Y-139572953D01*
X173632762Y-139668191D01*
X173680381Y-139811048D01*
X173680381Y-139906286D01*
X172680381Y-138620571D02*
X172680381Y-138811048D01*
X172728000Y-138906286D01*
X172775619Y-138953905D01*
X172918476Y-139049143D01*
X173108952Y-139096762D01*
X173489905Y-139096762D01*
X173585143Y-139049143D01*
X173632762Y-139001524D01*
X173680381Y-138906286D01*
X173680381Y-138715809D01*
X173632762Y-138620571D01*
X173585143Y-138572952D01*
X173489905Y-138525333D01*
X173251810Y-138525333D01*
X173156571Y-138572952D01*
X173108952Y-138620571D01*
X173061333Y-138715809D01*
X173061333Y-138906286D01*
X173108952Y-139001524D01*
X173156571Y-139049143D01*
X173251810Y-139096762D01*
D14*
X113695476Y-71120952D02*
X113635000Y-71241905D01*
X113514048Y-71362857D01*
X113332619Y-71544286D01*
X113272143Y-71665238D01*
X113272143Y-71786190D01*
X113574524Y-71725714D02*
X113514048Y-71846667D01*
X113393095Y-71967619D01*
X113151190Y-72028095D01*
X112727857Y-72028095D01*
X112485952Y-71967619D01*
X112365000Y-71846667D01*
X112304524Y-71725714D01*
X112304524Y-71483810D01*
X112365000Y-71362857D01*
X112485952Y-71241905D01*
X112727857Y-71181429D01*
X113151190Y-71181429D01*
X113393095Y-71241905D01*
X113514048Y-71362857D01*
X113574524Y-71483810D01*
X113574524Y-71725714D01*
X113574524Y-69971905D02*
X113574524Y-70697619D01*
X113574524Y-70334762D02*
X112304524Y-70334762D01*
X112485952Y-70455714D01*
X112606905Y-70576667D01*
X112667381Y-70697619D01*
X110901476Y-88120952D02*
X110841000Y-88241905D01*
X110720048Y-88362857D01*
X110538619Y-88544286D01*
X110478143Y-88665238D01*
X110478143Y-88786190D01*
X110780524Y-88725714D02*
X110720048Y-88846667D01*
X110599095Y-88967619D01*
X110357190Y-89028095D01*
X109933857Y-89028095D01*
X109691952Y-88967619D01*
X109571000Y-88846667D01*
X109510524Y-88725714D01*
X109510524Y-88483810D01*
X109571000Y-88362857D01*
X109691952Y-88241905D01*
X109933857Y-88181429D01*
X110357190Y-88181429D01*
X110599095Y-88241905D01*
X110720048Y-88362857D01*
X110780524Y-88483810D01*
X110780524Y-88725714D01*
X109631476Y-87697619D02*
X109571000Y-87637143D01*
X109510524Y-87516191D01*
X109510524Y-87213810D01*
X109571000Y-87092857D01*
X109631476Y-87032381D01*
X109752429Y-86971905D01*
X109873381Y-86971905D01*
X110054810Y-87032381D01*
X110780524Y-87758095D01*
X110780524Y-86971905D01*
X185695476Y-108120952D02*
X185635000Y-108241905D01*
X185514048Y-108362857D01*
X185332619Y-108544286D01*
X185272143Y-108665238D01*
X185272143Y-108786190D01*
X185574524Y-108725714D02*
X185514048Y-108846667D01*
X185393095Y-108967619D01*
X185151190Y-109028095D01*
X184727857Y-109028095D01*
X184485952Y-108967619D01*
X184365000Y-108846667D01*
X184304524Y-108725714D01*
X184304524Y-108483810D01*
X184365000Y-108362857D01*
X184485952Y-108241905D01*
X184727857Y-108181429D01*
X185151190Y-108181429D01*
X185393095Y-108241905D01*
X185514048Y-108362857D01*
X185574524Y-108483810D01*
X185574524Y-108725714D01*
X184304524Y-107758095D02*
X184304524Y-106971905D01*
X184788333Y-107395238D01*
X184788333Y-107213810D01*
X184848810Y-107092857D01*
X184909286Y-107032381D01*
X185030238Y-106971905D01*
X185332619Y-106971905D01*
X185453571Y-107032381D01*
X185514048Y-107092857D01*
X185574524Y-107213810D01*
X185574524Y-107576667D01*
X185514048Y-107697619D01*
X185453571Y-107758095D01*
D11*
X174833334Y-64152381D02*
X174500000Y-63676190D01*
X174261905Y-64152381D02*
X174261905Y-63152381D01*
X174642858Y-63152381D01*
X174738096Y-63200000D01*
X174785715Y-63247619D01*
X174833334Y-63342857D01*
X174833334Y-63485714D01*
X174785715Y-63580952D01*
X174738096Y-63628571D01*
X174642858Y-63676190D01*
X174261905Y-63676190D01*
X175785715Y-64152381D02*
X175214286Y-64152381D01*
X175500000Y-64152381D02*
X175500000Y-63152381D01*
X175404762Y-63295238D01*
X175309524Y-63390476D01*
X175214286Y-63438095D01*
X183762381Y-101766666D02*
X183286190Y-102100000D01*
X183762381Y-102338095D02*
X182762381Y-102338095D01*
X182762381Y-101957142D01*
X182810000Y-101861904D01*
X182857619Y-101814285D01*
X182952857Y-101766666D01*
X183095714Y-101766666D01*
X183190952Y-101814285D01*
X183238571Y-101861904D01*
X183286190Y-101957142D01*
X183286190Y-102338095D01*
X182857619Y-101385714D02*
X182810000Y-101338095D01*
X182762381Y-101242857D01*
X182762381Y-101004761D01*
X182810000Y-100909523D01*
X182857619Y-100861904D01*
X182952857Y-100814285D01*
X183048095Y-100814285D01*
X183190952Y-100861904D01*
X183762381Y-101433333D01*
X183762381Y-100814285D01*
X115260381Y-78906666D02*
X114784190Y-79240000D01*
X115260381Y-79478095D02*
X114260381Y-79478095D01*
X114260381Y-79097142D01*
X114308000Y-79001904D01*
X114355619Y-78954285D01*
X114450857Y-78906666D01*
X114593714Y-78906666D01*
X114688952Y-78954285D01*
X114736571Y-79001904D01*
X114784190Y-79097142D01*
X114784190Y-79478095D01*
X114260381Y-78573333D02*
X114260381Y-77954285D01*
X114641333Y-78287619D01*
X114641333Y-78144761D01*
X114688952Y-78049523D01*
X114736571Y-78001904D01*
X114831810Y-77954285D01*
X115069905Y-77954285D01*
X115165143Y-78001904D01*
X115212762Y-78049523D01*
X115260381Y-78144761D01*
X115260381Y-78430476D01*
X115212762Y-78525714D01*
X115165143Y-78573333D01*
X115260381Y-97448666D02*
X114784190Y-97782000D01*
X115260381Y-98020095D02*
X114260381Y-98020095D01*
X114260381Y-97639142D01*
X114308000Y-97543904D01*
X114355619Y-97496285D01*
X114450857Y-97448666D01*
X114593714Y-97448666D01*
X114688952Y-97496285D01*
X114736571Y-97543904D01*
X114784190Y-97639142D01*
X114784190Y-98020095D01*
X114593714Y-96591523D02*
X115260381Y-96591523D01*
X114212762Y-96829619D02*
X114927048Y-97067714D01*
X114927048Y-96448666D01*
D14*
X116032381Y-68304524D02*
X116032381Y-69332619D01*
X116092857Y-69453571D01*
X116153333Y-69514048D01*
X116274286Y-69574524D01*
X116516190Y-69574524D01*
X116637143Y-69514048D01*
X116697619Y-69453571D01*
X116758095Y-69332619D01*
X116758095Y-68304524D01*
X117302381Y-68425476D02*
X117362857Y-68365000D01*
X117483809Y-68304524D01*
X117786190Y-68304524D01*
X117907143Y-68365000D01*
X117967619Y-68425476D01*
X118028095Y-68546429D01*
X118028095Y-68667381D01*
X117967619Y-68848810D01*
X117241905Y-69574524D01*
X118028095Y-69574524D01*
D11*
X181546667Y-124654762D02*
X181689524Y-124702381D01*
X181927620Y-124702381D01*
X182022858Y-124654762D01*
X182070477Y-124607143D01*
X182118096Y-124511905D01*
X182118096Y-124416667D01*
X182070477Y-124321429D01*
X182022858Y-124273810D01*
X181927620Y-124226190D01*
X181737143Y-124178571D01*
X181641905Y-124130952D01*
X181594286Y-124083333D01*
X181546667Y-123988095D01*
X181546667Y-123892857D01*
X181594286Y-123797619D01*
X181641905Y-123750000D01*
X181737143Y-123702381D01*
X181975239Y-123702381D01*
X182118096Y-123750000D01*
X182451429Y-123702381D02*
X182689524Y-124702381D01*
X182880001Y-123988095D01*
X183070477Y-124702381D01*
X183308572Y-123702381D01*
X184213334Y-124702381D02*
X183641905Y-124702381D01*
X183927619Y-124702381D02*
X183927619Y-123702381D01*
X183832381Y-123845238D01*
X183737143Y-123940476D01*
X183641905Y-123988095D01*
X165608095Y-88860381D02*
X165608095Y-89669905D01*
X165655714Y-89765143D01*
X165703333Y-89812762D01*
X165798571Y-89860381D01*
X165989048Y-89860381D01*
X166084286Y-89812762D01*
X166131905Y-89765143D01*
X166179524Y-89669905D01*
X166179524Y-88860381D01*
X167084286Y-89193714D02*
X167084286Y-89860381D01*
X166846190Y-88812762D02*
X166608095Y-89527048D01*
X167227143Y-89527048D01*
X165314381Y-86105905D02*
X166123905Y-86105905D01*
X166219143Y-86058286D01*
X166266762Y-86010667D01*
X166314381Y-85915429D01*
X166314381Y-85724952D01*
X166266762Y-85629714D01*
X166219143Y-85582095D01*
X166123905Y-85534476D01*
X165314381Y-85534476D01*
X166314381Y-84534476D02*
X166314381Y-85105905D01*
X166314381Y-84820191D02*
X165314381Y-84820191D01*
X165457238Y-84915429D01*
X165552476Y-85010667D01*
X165600095Y-85105905D01*
M02*
