M48
INCH,TZ
T1C0.012
T2C0.016
T3C0.030
T4C0.039
T5C0.051
T6C0.071
T7C0.091
%
G90
G05
T1
X44488Y-25984
X45669Y-23622
X45669Y-24803
X49213Y-23622
X49213Y-24803
X49213Y-41732
X49213Y-46850
X49213Y-51969
X50787Y-32283
X52756Y-23622
X52756Y-24803
X52756Y-25984
X53543Y-29921
X53543Y-41732
X53543Y-46850
X53543Y-51969
X57087Y-23622
X57087Y-24803
X57087Y-25984
X61024Y-23622
X61024Y-25984
X61024Y-29528
X64567Y-23622
X64567Y-24803
X64567Y-25984
X64567Y-47244
X65200Y-28100
X65200Y-32100
X66142Y-40945
X67000Y-23600
X67000Y-24800
T2
X44600Y-33500
X45100Y-30800
X45800Y-29500
X47600Y-31900
X47700Y-32500
X47800Y-33400
X47800Y-40200
X50100Y-30400
X51300Y-29500
X54400Y-36000
X54900Y-35700
X55200Y-33700
X55300Y-32800
X55300Y-35300
X57600Y-42400
X60400Y-35300
X60500Y-27000
X61000Y-35700
X61600Y-51000
X61800Y-36000
X62000Y-51400
X71200Y-44500
X72441Y-38976
T3
X61500Y-41500
X61500Y-42500
X61500Y-43500
X61500Y-44500
X61500Y-45500
X61500Y-46500
X61500Y-47500
X61500Y-48500
X66642Y-26421
X66642Y-27421
X66642Y-32421
X66642Y-33421
X67642Y-26421
X67642Y-33421
X70642Y-26421
X70642Y-33421
X71642Y-26421
X71642Y-30421
X71642Y-31421
X71642Y-32421
X71642Y-33421
T4
X44075Y-41350
X44075Y-42350
X44075Y-43350
X44075Y-44350
X44075Y-45350
X44075Y-46350
X44075Y-47350
X44075Y-48350
X44075Y-49350
X44075Y-50350
X44075Y-51350
X44075Y-52350
X45075Y-41350
X45075Y-42350
X45075Y-43350
X45075Y-44350
X45075Y-45350
X45075Y-46350
X45075Y-47350
X45075Y-48350
X45075Y-49350
X45075Y-50350
X45075Y-51350
X45075Y-52350
X59075Y-41350
X59075Y-42350
X59075Y-43350
X59075Y-44350
X59075Y-45350
X59075Y-46350
X59075Y-47350
X59075Y-48350
X59075Y-49350
X59075Y-50350
X59075Y-51350
X59075Y-52350
X62598Y-52756
X63598Y-52756
X64398Y-52756
X65398Y-52756
X72000Y-46000
X72000Y-47000
X72000Y-48000
T5
X58626Y-32638
T6
X63350Y-26417
T7
X61197Y-53807
X66598Y-53807
T4
X70079Y-51969G85X70866Y-51969
G05
X70079Y-54331G85X70866Y-54331
G05
X72323Y-53543G85X72323Y-52756
G05
T0
M30
