G04 #@! TF.FileFunction,Copper,L2,Bot,Signal*
%FSLAX46Y46*%
G04 Gerber Fmt 4.6, Leading zero omitted, Abs format (unit mm)*
G04 Created by KiCad (PCBNEW 4.0.7) date *
%MOMM*%
%LPD*%
G01*
G04 APERTURE LIST*
%ADD10C,0.100000*%
%ADD11C,1.600000*%
%ADD12C,2.000000*%
%ADD13C,2.650000*%
%ADD14C,1.500000*%
%ADD15C,3.000000*%
%ADD16R,3.500000X3.500000*%
%ADD17R,1.700000X1.700000*%
%ADD18O,1.700000X1.700000*%
%ADD19C,0.600000*%
%ADD20C,1.524000*%
%ADD21C,0.250000*%
%ADD22C,0.500000*%
%ADD23C,0.254000*%
G04 APERTURE END LIST*
D10*
D11*
X111950000Y-105030000D03*
X114490000Y-105030000D03*
X111950000Y-107570000D03*
X114490000Y-107570000D03*
X111950000Y-110110000D03*
X111950000Y-112650000D03*
X111950000Y-115190000D03*
X111950000Y-117730000D03*
X111950000Y-120270000D03*
X111950000Y-122810000D03*
X111950000Y-125350000D03*
X111950000Y-127890000D03*
X111950000Y-130430000D03*
X111950000Y-132970000D03*
X114490000Y-110110000D03*
X114490000Y-112650000D03*
X114490000Y-115190000D03*
X114490000Y-117730000D03*
X114490000Y-120270000D03*
X114490000Y-122810000D03*
X114490000Y-125350000D03*
X114490000Y-127890000D03*
X114490000Y-130430000D03*
X114490000Y-132970000D03*
X150050000Y-105030000D03*
X150050000Y-107570000D03*
X150050000Y-110110000D03*
X150050000Y-112650000D03*
X150050000Y-115190000D03*
X150050000Y-117730000D03*
X150050000Y-120270000D03*
X150050000Y-122810000D03*
X150050000Y-125350000D03*
X150050000Y-127890000D03*
X150050000Y-130430000D03*
X150050000Y-132970000D03*
D12*
X148910000Y-82900000D03*
D13*
X160910000Y-67100000D03*
D14*
X166110000Y-134000000D03*
X163570000Y-134000000D03*
X161540000Y-134000000D03*
X159000000Y-134000000D03*
D15*
X169160000Y-136670000D03*
X155440000Y-136670000D03*
D16*
X179000000Y-132000000D03*
X179000000Y-138000000D03*
X183700000Y-135000000D03*
D17*
X182880000Y-121920000D03*
D18*
X182880000Y-119380000D03*
X182880000Y-116840000D03*
D19*
X136000000Y-76000000D03*
X129000000Y-82000000D03*
X116000000Y-60000000D03*
X116000000Y-63000000D03*
X113000000Y-66000000D03*
X145000000Y-60000000D03*
X145000000Y-63000000D03*
X145000000Y-66000000D03*
X134000000Y-66000000D03*
X134000000Y-63000000D03*
X134000000Y-60000000D03*
X125000000Y-63000000D03*
X125000000Y-60000000D03*
X164000000Y-60000000D03*
X164000000Y-63000000D03*
X164000000Y-66000000D03*
X155000000Y-60000000D03*
X155000000Y-66000000D03*
X170180000Y-59944000D03*
X170180000Y-62992000D03*
X165608000Y-71374000D03*
X165608000Y-81534000D03*
X125000000Y-106000000D03*
X136000000Y-106000000D03*
X125000000Y-119000000D03*
X136000000Y-119000000D03*
X125000000Y-132000000D03*
X136000000Y-132000000D03*
X168000000Y-104000000D03*
X164000000Y-120000000D03*
X155000000Y-75000000D03*
D20*
X156210000Y-123190000D03*
X156210000Y-120650000D03*
X156210000Y-118110000D03*
X156210000Y-115570000D03*
X156210000Y-113030000D03*
X156210000Y-110490000D03*
X156210000Y-107950000D03*
X156210000Y-105410000D03*
X169270000Y-84890000D03*
X171810000Y-84890000D03*
X179430000Y-84890000D03*
X181970000Y-84890000D03*
X181970000Y-82350000D03*
X181970000Y-79810000D03*
X181970000Y-77270000D03*
X181970000Y-67110000D03*
X179430000Y-67110000D03*
X171810000Y-67110000D03*
X169270000Y-67110000D03*
X169270000Y-69650000D03*
X169270000Y-82350000D03*
D19*
X138176000Y-91440000D03*
X156972000Y-91440000D03*
X139446000Y-90678000D03*
X154940000Y-90678000D03*
X140462000Y-89662000D03*
X153416000Y-89662000D03*
X153670000Y-68580000D03*
X140462000Y-83312000D03*
X156464000Y-129540000D03*
X157480000Y-130556000D03*
X121412000Y-102108000D03*
X121412000Y-84836000D03*
X130302000Y-74930000D03*
X116332000Y-74930000D03*
X127254000Y-77216000D03*
X113284000Y-85090000D03*
X184000000Y-99000000D03*
X180848000Y-113030000D03*
X140208000Y-85598000D03*
X114554000Y-78232000D03*
X120904000Y-81026000D03*
X121158000Y-82550000D03*
X146304000Y-107696000D03*
D21*
X156972000Y-91440000D02*
X138176000Y-91440000D01*
X154940000Y-90678000D02*
X139446000Y-90678000D01*
X153416000Y-89662000D02*
X140462000Y-89662000D01*
X153670000Y-70104000D02*
X153670000Y-68580000D01*
X140462000Y-83312000D02*
X153670000Y-70104000D01*
X163570000Y-134000000D02*
X163570000Y-132074000D01*
X161036000Y-129540000D02*
X156464000Y-129540000D01*
X163570000Y-132074000D02*
X161036000Y-129540000D01*
X161540000Y-134000000D02*
X161540000Y-131314000D01*
X160782000Y-130556000D02*
X157480000Y-130556000D01*
X161540000Y-131314000D02*
X160782000Y-130556000D01*
D22*
X121412000Y-84836000D02*
X121412000Y-102108000D01*
D21*
X116332000Y-74930000D02*
X130302000Y-74930000D01*
X113284000Y-77216000D02*
X127254000Y-77216000D01*
X113284000Y-85090000D02*
X113284000Y-77216000D01*
X183350000Y-82350000D02*
X181970000Y-82350000D01*
X184000000Y-83000000D02*
X183350000Y-82350000D01*
X184000000Y-99000000D02*
X184000000Y-83000000D01*
X182732000Y-82350000D02*
X181970000Y-82350000D01*
X180848000Y-113030000D02*
X156210000Y-113030000D01*
D22*
X138938000Y-85598000D02*
X140208000Y-85598000D01*
X131572000Y-78232000D02*
X138938000Y-85598000D01*
X114554000Y-78232000D02*
X131572000Y-78232000D01*
D21*
X150050000Y-110110000D02*
X149988000Y-110110000D01*
X149988000Y-110110000D02*
X120904000Y-81026000D01*
X150050000Y-109918000D02*
X150050000Y-110110000D01*
X146304000Y-107696000D02*
X121158000Y-82550000D01*
D23*
G36*
X186544000Y-140544000D02*
X109456000Y-140544000D01*
X109456000Y-138000000D01*
X145044000Y-138000000D01*
X145192892Y-138748529D01*
X145616899Y-139383101D01*
X146251471Y-139807108D01*
X147000000Y-139956000D01*
X147748529Y-139807108D01*
X148383101Y-139383101D01*
X148807108Y-138748529D01*
X148919406Y-138183970D01*
X154105635Y-138183970D01*
X154265418Y-138502739D01*
X155056187Y-138812723D01*
X155905387Y-138796497D01*
X156614582Y-138502739D01*
X156774365Y-138183970D01*
X167825635Y-138183970D01*
X167985418Y-138502739D01*
X168776187Y-138812723D01*
X169625387Y-138796497D01*
X170334582Y-138502739D01*
X170443347Y-138285750D01*
X176615000Y-138285750D01*
X176615000Y-139876309D01*
X176711673Y-140109698D01*
X176890301Y-140288327D01*
X177123690Y-140385000D01*
X178714250Y-140385000D01*
X178873000Y-140226250D01*
X178873000Y-138127000D01*
X179127000Y-138127000D01*
X179127000Y-140226250D01*
X179285750Y-140385000D01*
X180876310Y-140385000D01*
X181109699Y-140288327D01*
X181288327Y-140109698D01*
X181385000Y-139876309D01*
X181385000Y-138285750D01*
X181226250Y-138127000D01*
X179127000Y-138127000D01*
X178873000Y-138127000D01*
X176773750Y-138127000D01*
X176615000Y-138285750D01*
X170443347Y-138285750D01*
X170494365Y-138183970D01*
X169160000Y-136849605D01*
X167825635Y-138183970D01*
X156774365Y-138183970D01*
X155440000Y-136849605D01*
X154105635Y-138183970D01*
X148919406Y-138183970D01*
X148956000Y-138000000D01*
X148807108Y-137251471D01*
X148383101Y-136616899D01*
X147888155Y-136286187D01*
X153297277Y-136286187D01*
X153313503Y-137135387D01*
X153607261Y-137844582D01*
X153926030Y-138004365D01*
X155260395Y-136670000D01*
X155619605Y-136670000D01*
X156953970Y-138004365D01*
X157272739Y-137844582D01*
X157582723Y-137053813D01*
X157568056Y-136286187D01*
X167017277Y-136286187D01*
X167033503Y-137135387D01*
X167327261Y-137844582D01*
X167646030Y-138004365D01*
X168980395Y-136670000D01*
X169339605Y-136670000D01*
X170673970Y-138004365D01*
X170992739Y-137844582D01*
X171302723Y-137053813D01*
X171286497Y-136204613D01*
X171252979Y-136123691D01*
X176615000Y-136123691D01*
X176615000Y-137714250D01*
X176773750Y-137873000D01*
X178873000Y-137873000D01*
X178873000Y-135773750D01*
X179127000Y-135773750D01*
X179127000Y-137873000D01*
X181226250Y-137873000D01*
X181385000Y-137714250D01*
X181385000Y-136123691D01*
X181288327Y-135890302D01*
X181109699Y-135711673D01*
X180876310Y-135615000D01*
X179285750Y-135615000D01*
X179127000Y-135773750D01*
X178873000Y-135773750D01*
X178714250Y-135615000D01*
X177123690Y-135615000D01*
X176890301Y-135711673D01*
X176711673Y-135890302D01*
X176615000Y-136123691D01*
X171252979Y-136123691D01*
X170992739Y-135495418D01*
X170673970Y-135335635D01*
X169339605Y-136670000D01*
X168980395Y-136670000D01*
X167646030Y-135335635D01*
X167327261Y-135495418D01*
X167017277Y-136286187D01*
X157568056Y-136286187D01*
X157566497Y-136204613D01*
X157272739Y-135495418D01*
X156953970Y-135335635D01*
X155619605Y-136670000D01*
X155260395Y-136670000D01*
X153926030Y-135335635D01*
X153607261Y-135495418D01*
X153297277Y-136286187D01*
X147888155Y-136286187D01*
X147748529Y-136192892D01*
X147000000Y-136044000D01*
X146251471Y-136192892D01*
X145616899Y-136616899D01*
X145192892Y-137251471D01*
X145044000Y-138000000D01*
X109456000Y-138000000D01*
X109456000Y-135156030D01*
X154105635Y-135156030D01*
X155440000Y-136490395D01*
X156774365Y-135156030D01*
X156614582Y-134837261D01*
X155823813Y-134527277D01*
X154974613Y-134543503D01*
X154265418Y-134837261D01*
X154105635Y-135156030D01*
X109456000Y-135156030D01*
X109456000Y-133203885D01*
X110768796Y-133203885D01*
X110948213Y-133638109D01*
X111280144Y-133970619D01*
X111714054Y-134150794D01*
X112183885Y-134151204D01*
X112618109Y-133971787D01*
X112950619Y-133639856D01*
X113130794Y-133205946D01*
X113130795Y-133203885D01*
X113308796Y-133203885D01*
X113488213Y-133638109D01*
X113820144Y-133970619D01*
X114254054Y-134150794D01*
X114723885Y-134151204D01*
X115143689Y-133977745D01*
X149221861Y-133977745D01*
X149295995Y-134223864D01*
X149833223Y-134416965D01*
X150403454Y-134389778D01*
X150803717Y-134223983D01*
X157868804Y-134223983D01*
X158040625Y-134639823D01*
X158358503Y-134958256D01*
X158774043Y-135130804D01*
X159223983Y-135131196D01*
X159639823Y-134959375D01*
X159958256Y-134641497D01*
X160130804Y-134225957D01*
X160131196Y-133776017D01*
X159959375Y-133360177D01*
X159641497Y-133041744D01*
X159225957Y-132869196D01*
X158776017Y-132868804D01*
X158360177Y-133040625D01*
X158041744Y-133358503D01*
X157869196Y-133774043D01*
X157868804Y-134223983D01*
X150803717Y-134223983D01*
X150804005Y-134223864D01*
X150878139Y-133977745D01*
X150050000Y-133149605D01*
X149221861Y-133977745D01*
X115143689Y-133977745D01*
X115158109Y-133971787D01*
X115490619Y-133639856D01*
X115670794Y-133205946D01*
X115671189Y-132753223D01*
X148603035Y-132753223D01*
X148630222Y-133323454D01*
X148796136Y-133724005D01*
X149042255Y-133798139D01*
X149870395Y-132970000D01*
X150229605Y-132970000D01*
X151057745Y-133798139D01*
X151303864Y-133724005D01*
X151496965Y-133186777D01*
X151469778Y-132616546D01*
X151303864Y-132215995D01*
X151057745Y-132141861D01*
X150229605Y-132970000D01*
X149870395Y-132970000D01*
X149042255Y-132141861D01*
X148796136Y-132215995D01*
X148603035Y-132753223D01*
X115671189Y-132753223D01*
X115671204Y-132736115D01*
X115491787Y-132301891D01*
X115159856Y-131969381D01*
X114725946Y-131789206D01*
X114256115Y-131788796D01*
X113821891Y-131968213D01*
X113489381Y-132300144D01*
X113309206Y-132734054D01*
X113308796Y-133203885D01*
X113130795Y-133203885D01*
X113131204Y-132736115D01*
X112951787Y-132301891D01*
X112619856Y-131969381D01*
X112185946Y-131789206D01*
X111716115Y-131788796D01*
X111281891Y-131968213D01*
X110949381Y-132300144D01*
X110769206Y-132734054D01*
X110768796Y-133203885D01*
X109456000Y-133203885D01*
X109456000Y-130663885D01*
X110768796Y-130663885D01*
X110948213Y-131098109D01*
X111280144Y-131430619D01*
X111714054Y-131610794D01*
X112183885Y-131611204D01*
X112618109Y-131431787D01*
X112950619Y-131099856D01*
X113130794Y-130665946D01*
X113130795Y-130663885D01*
X113308796Y-130663885D01*
X113488213Y-131098109D01*
X113820144Y-131430619D01*
X114254054Y-131610794D01*
X114723885Y-131611204D01*
X115158109Y-131431787D01*
X115490619Y-131099856D01*
X115670794Y-130665946D01*
X115670795Y-130663885D01*
X148868796Y-130663885D01*
X149048213Y-131098109D01*
X149380144Y-131430619D01*
X149682346Y-131556104D01*
X149295995Y-131716136D01*
X149221861Y-131962255D01*
X150050000Y-132790395D01*
X150878139Y-131962255D01*
X150804005Y-131716136D01*
X150390042Y-131567341D01*
X150718109Y-131431787D01*
X151050619Y-131099856D01*
X151230794Y-130665946D01*
X151231204Y-130196115D01*
X151051787Y-129761891D01*
X150964913Y-129674865D01*
X155782882Y-129674865D01*
X155886339Y-129925252D01*
X156077741Y-130116987D01*
X156327946Y-130220882D01*
X156598865Y-130221118D01*
X156849252Y-130117661D01*
X156921038Y-130046000D01*
X157026969Y-130046000D01*
X156903013Y-130169741D01*
X156799118Y-130419946D01*
X156798882Y-130690865D01*
X156902339Y-130941252D01*
X157093741Y-131132987D01*
X157343946Y-131236882D01*
X157614865Y-131237118D01*
X157865252Y-131133661D01*
X157937038Y-131062000D01*
X160572408Y-131062000D01*
X161034000Y-131523592D01*
X161034000Y-132985331D01*
X160900177Y-133040625D01*
X160581744Y-133358503D01*
X160409196Y-133774043D01*
X160408804Y-134223983D01*
X160580625Y-134639823D01*
X160898503Y-134958256D01*
X161314043Y-135130804D01*
X161763983Y-135131196D01*
X162179823Y-134959375D01*
X162498256Y-134641497D01*
X162554926Y-134505021D01*
X162610625Y-134639823D01*
X162928503Y-134958256D01*
X163344043Y-135130804D01*
X163793983Y-135131196D01*
X164180437Y-134971517D01*
X165318088Y-134971517D01*
X165386077Y-135212460D01*
X165905171Y-135397201D01*
X166455448Y-135369230D01*
X166833923Y-135212460D01*
X166849846Y-135156030D01*
X167825635Y-135156030D01*
X169160000Y-136490395D01*
X170494365Y-135156030D01*
X170334582Y-134837261D01*
X169543813Y-134527277D01*
X168694613Y-134543503D01*
X167985418Y-134837261D01*
X167825635Y-135156030D01*
X166849846Y-135156030D01*
X166901912Y-134971517D01*
X166110000Y-134179605D01*
X165318088Y-134971517D01*
X164180437Y-134971517D01*
X164209823Y-134959375D01*
X164528256Y-134641497D01*
X164700804Y-134225957D01*
X164701179Y-133795171D01*
X164712799Y-133795171D01*
X164740770Y-134345448D01*
X164897540Y-134723923D01*
X165138483Y-134791912D01*
X165930395Y-134000000D01*
X166289605Y-134000000D01*
X167081517Y-134791912D01*
X167322460Y-134723923D01*
X167507201Y-134204829D01*
X167479230Y-133654552D01*
X167322460Y-133276077D01*
X167081517Y-133208088D01*
X166289605Y-134000000D01*
X165930395Y-134000000D01*
X165138483Y-133208088D01*
X164897540Y-133276077D01*
X164712799Y-133795171D01*
X164701179Y-133795171D01*
X164701196Y-133776017D01*
X164529375Y-133360177D01*
X164211497Y-133041744D01*
X164179562Y-133028483D01*
X165318088Y-133028483D01*
X166110000Y-133820395D01*
X166901912Y-133028483D01*
X166833923Y-132787540D01*
X166314829Y-132602799D01*
X165764552Y-132630770D01*
X165386077Y-132787540D01*
X165318088Y-133028483D01*
X164179562Y-133028483D01*
X164076000Y-132985480D01*
X164076000Y-132074000D01*
X164037483Y-131880362D01*
X163927796Y-131716204D01*
X162461592Y-130250000D01*
X176861536Y-130250000D01*
X176861536Y-133750000D01*
X176888103Y-133891190D01*
X176971546Y-134020865D01*
X177098866Y-134107859D01*
X177250000Y-134138464D01*
X180750000Y-134138464D01*
X180891190Y-134111897D01*
X181020865Y-134028454D01*
X181107859Y-133901134D01*
X181138464Y-133750000D01*
X181138464Y-133250000D01*
X181561536Y-133250000D01*
X181561536Y-136750000D01*
X181588103Y-136891190D01*
X181671546Y-137020865D01*
X181798866Y-137107859D01*
X181950000Y-137138464D01*
X185450000Y-137138464D01*
X185591190Y-137111897D01*
X185720865Y-137028454D01*
X185807859Y-136901134D01*
X185838464Y-136750000D01*
X185838464Y-133250000D01*
X185811897Y-133108810D01*
X185728454Y-132979135D01*
X185601134Y-132892141D01*
X185450000Y-132861536D01*
X181950000Y-132861536D01*
X181808810Y-132888103D01*
X181679135Y-132971546D01*
X181592141Y-133098866D01*
X181561536Y-133250000D01*
X181138464Y-133250000D01*
X181138464Y-130250000D01*
X181111897Y-130108810D01*
X181028454Y-129979135D01*
X180901134Y-129892141D01*
X180750000Y-129861536D01*
X177250000Y-129861536D01*
X177108810Y-129888103D01*
X176979135Y-129971546D01*
X176892141Y-130098866D01*
X176861536Y-130250000D01*
X162461592Y-130250000D01*
X161393796Y-129182204D01*
X161229638Y-129072517D01*
X161036000Y-129034000D01*
X156921123Y-129034000D01*
X156850259Y-128963013D01*
X156600054Y-128859118D01*
X156329135Y-128858882D01*
X156078748Y-128962339D01*
X155887013Y-129153741D01*
X155783118Y-129403946D01*
X155782882Y-129674865D01*
X150964913Y-129674865D01*
X150719856Y-129429381D01*
X150285946Y-129249206D01*
X149816115Y-129248796D01*
X149381891Y-129428213D01*
X149049381Y-129760144D01*
X148869206Y-130194054D01*
X148868796Y-130663885D01*
X115670795Y-130663885D01*
X115671204Y-130196115D01*
X115491787Y-129761891D01*
X115159856Y-129429381D01*
X114725946Y-129249206D01*
X114256115Y-129248796D01*
X113821891Y-129428213D01*
X113489381Y-129760144D01*
X113309206Y-130194054D01*
X113308796Y-130663885D01*
X113130795Y-130663885D01*
X113131204Y-130196115D01*
X112951787Y-129761891D01*
X112619856Y-129429381D01*
X112317654Y-129303896D01*
X112704005Y-129143864D01*
X112778139Y-128897745D01*
X111950000Y-128069605D01*
X111121861Y-128897745D01*
X111195995Y-129143864D01*
X111609958Y-129292659D01*
X111281891Y-129428213D01*
X110949381Y-129760144D01*
X110769206Y-130194054D01*
X110768796Y-130663885D01*
X109456000Y-130663885D01*
X109456000Y-127673223D01*
X110503035Y-127673223D01*
X110530222Y-128243454D01*
X110696136Y-128644005D01*
X110942255Y-128718139D01*
X111770395Y-127890000D01*
X112129605Y-127890000D01*
X112957745Y-128718139D01*
X113203864Y-128644005D01*
X113352659Y-128230042D01*
X113488213Y-128558109D01*
X113820144Y-128890619D01*
X114254054Y-129070794D01*
X114723885Y-129071204D01*
X115158109Y-128891787D01*
X115490619Y-128559856D01*
X115670794Y-128125946D01*
X115670795Y-128123885D01*
X148868796Y-128123885D01*
X149048213Y-128558109D01*
X149380144Y-128890619D01*
X149814054Y-129070794D01*
X150283885Y-129071204D01*
X150718109Y-128891787D01*
X151050619Y-128559856D01*
X151230794Y-128125946D01*
X151231204Y-127656115D01*
X151051787Y-127221891D01*
X150719856Y-126889381D01*
X150285946Y-126709206D01*
X149816115Y-126708796D01*
X149381891Y-126888213D01*
X149049381Y-127220144D01*
X148869206Y-127654054D01*
X148868796Y-128123885D01*
X115670795Y-128123885D01*
X115671204Y-127656115D01*
X115491787Y-127221891D01*
X115159856Y-126889381D01*
X114725946Y-126709206D01*
X114256115Y-126708796D01*
X113821891Y-126888213D01*
X113489381Y-127220144D01*
X113363896Y-127522346D01*
X113203864Y-127135995D01*
X112957745Y-127061861D01*
X112129605Y-127890000D01*
X111770395Y-127890000D01*
X110942255Y-127061861D01*
X110696136Y-127135995D01*
X110503035Y-127673223D01*
X109456000Y-127673223D01*
X109456000Y-125583885D01*
X110768796Y-125583885D01*
X110948213Y-126018109D01*
X111280144Y-126350619D01*
X111582346Y-126476104D01*
X111195995Y-126636136D01*
X111121861Y-126882255D01*
X111950000Y-127710395D01*
X112778139Y-126882255D01*
X112704005Y-126636136D01*
X112290042Y-126487341D01*
X112618109Y-126351787D01*
X112950619Y-126019856D01*
X113130794Y-125585946D01*
X113130795Y-125583885D01*
X113308796Y-125583885D01*
X113488213Y-126018109D01*
X113820144Y-126350619D01*
X114254054Y-126530794D01*
X114723885Y-126531204D01*
X115158109Y-126351787D01*
X115490619Y-126019856D01*
X115670794Y-125585946D01*
X115670795Y-125583885D01*
X148868796Y-125583885D01*
X149048213Y-126018109D01*
X149380144Y-126350619D01*
X149814054Y-126530794D01*
X150283885Y-126531204D01*
X150718109Y-126351787D01*
X151050619Y-126019856D01*
X151230794Y-125585946D01*
X151231204Y-125116115D01*
X151051787Y-124681891D01*
X150719856Y-124349381D01*
X150285946Y-124169206D01*
X149816115Y-124168796D01*
X149381891Y-124348213D01*
X149049381Y-124680144D01*
X148869206Y-125114054D01*
X148868796Y-125583885D01*
X115670795Y-125583885D01*
X115671204Y-125116115D01*
X115491787Y-124681891D01*
X115159856Y-124349381D01*
X114725946Y-124169206D01*
X114256115Y-124168796D01*
X113821891Y-124348213D01*
X113489381Y-124680144D01*
X113309206Y-125114054D01*
X113308796Y-125583885D01*
X113130795Y-125583885D01*
X113131204Y-125116115D01*
X112951787Y-124681891D01*
X112619856Y-124349381D01*
X112185946Y-124169206D01*
X111716115Y-124168796D01*
X111281891Y-124348213D01*
X110949381Y-124680144D01*
X110769206Y-125114054D01*
X110768796Y-125583885D01*
X109456000Y-125583885D01*
X109456000Y-123043885D01*
X110768796Y-123043885D01*
X110948213Y-123478109D01*
X111280144Y-123810619D01*
X111714054Y-123990794D01*
X112183885Y-123991204D01*
X112618109Y-123811787D01*
X112950619Y-123479856D01*
X113130794Y-123045946D01*
X113130795Y-123043885D01*
X113308796Y-123043885D01*
X113488213Y-123478109D01*
X113820144Y-123810619D01*
X114254054Y-123990794D01*
X114723885Y-123991204D01*
X115158109Y-123811787D01*
X115490619Y-123479856D01*
X115670794Y-123045946D01*
X115670795Y-123043885D01*
X148868796Y-123043885D01*
X149048213Y-123478109D01*
X149380144Y-123810619D01*
X149814054Y-123990794D01*
X150283885Y-123991204D01*
X150718109Y-123811787D01*
X151050619Y-123479856D01*
X151076985Y-123416359D01*
X155066802Y-123416359D01*
X155240446Y-123836612D01*
X155561697Y-124158423D01*
X155981646Y-124332801D01*
X156436359Y-124333198D01*
X156856612Y-124159554D01*
X157178423Y-123838303D01*
X157352801Y-123418354D01*
X157353198Y-122963641D01*
X157179554Y-122543388D01*
X156858303Y-122221577D01*
X156438354Y-122047199D01*
X156244340Y-122047030D01*
X156557368Y-122031362D01*
X156941143Y-121872397D01*
X157010608Y-121630213D01*
X156210000Y-120829605D01*
X155409392Y-121630213D01*
X155478857Y-121872397D01*
X155976258Y-122049852D01*
X155563388Y-122220446D01*
X155241577Y-122541697D01*
X155067199Y-122961646D01*
X155066802Y-123416359D01*
X151076985Y-123416359D01*
X151230794Y-123045946D01*
X151231204Y-122576115D01*
X151051787Y-122141891D01*
X150719856Y-121809381D01*
X150285946Y-121629206D01*
X149816115Y-121628796D01*
X149381891Y-121808213D01*
X149049381Y-122140144D01*
X148869206Y-122574054D01*
X148868796Y-123043885D01*
X115670795Y-123043885D01*
X115671204Y-122576115D01*
X115491787Y-122141891D01*
X115159856Y-121809381D01*
X114725946Y-121629206D01*
X114256115Y-121628796D01*
X113821891Y-121808213D01*
X113489381Y-122140144D01*
X113309206Y-122574054D01*
X113308796Y-123043885D01*
X113130795Y-123043885D01*
X113131204Y-122576115D01*
X112951787Y-122141891D01*
X112619856Y-121809381D01*
X112317654Y-121683896D01*
X112704005Y-121523864D01*
X112778139Y-121277745D01*
X111950000Y-120449605D01*
X111121861Y-121277745D01*
X111195995Y-121523864D01*
X111609958Y-121672659D01*
X111281891Y-121808213D01*
X110949381Y-122140144D01*
X110769206Y-122574054D01*
X110768796Y-123043885D01*
X109456000Y-123043885D01*
X109456000Y-120053223D01*
X110503035Y-120053223D01*
X110530222Y-120623454D01*
X110696136Y-121024005D01*
X110942255Y-121098139D01*
X111770395Y-120270000D01*
X112129605Y-120270000D01*
X112957745Y-121098139D01*
X113203864Y-121024005D01*
X113352659Y-120610042D01*
X113488213Y-120938109D01*
X113820144Y-121270619D01*
X114254054Y-121450794D01*
X114723885Y-121451204D01*
X115158109Y-121271787D01*
X115490619Y-120939856D01*
X115670794Y-120505946D01*
X115670795Y-120503885D01*
X148868796Y-120503885D01*
X149048213Y-120938109D01*
X149380144Y-121270619D01*
X149814054Y-121450794D01*
X150283885Y-121451204D01*
X150718109Y-121271787D01*
X151050619Y-120939856D01*
X151230794Y-120505946D01*
X151230849Y-120442302D01*
X154800856Y-120442302D01*
X154828638Y-120997368D01*
X154987603Y-121381143D01*
X155229787Y-121450608D01*
X156030395Y-120650000D01*
X156389605Y-120650000D01*
X157190213Y-121450608D01*
X157432397Y-121381143D01*
X157543402Y-121070000D01*
X181641536Y-121070000D01*
X181641536Y-122770000D01*
X181668103Y-122911190D01*
X181751546Y-123040865D01*
X181878866Y-123127859D01*
X182030000Y-123158464D01*
X183730000Y-123158464D01*
X183871190Y-123131897D01*
X184000865Y-123048454D01*
X184087859Y-122921134D01*
X184118464Y-122770000D01*
X184118464Y-121070000D01*
X184091897Y-120928810D01*
X184008454Y-120799135D01*
X183881134Y-120712141D01*
X183730000Y-120681536D01*
X182030000Y-120681536D01*
X181888810Y-120708103D01*
X181759135Y-120791546D01*
X181672141Y-120918866D01*
X181641536Y-121070000D01*
X157543402Y-121070000D01*
X157619144Y-120857698D01*
X157591362Y-120302632D01*
X157432397Y-119918857D01*
X157190213Y-119849392D01*
X156389605Y-120650000D01*
X156030395Y-120650000D01*
X155229787Y-119849392D01*
X154987603Y-119918857D01*
X154800856Y-120442302D01*
X151230849Y-120442302D01*
X151231204Y-120036115D01*
X151051787Y-119601891D01*
X150719856Y-119269381D01*
X150285946Y-119089206D01*
X149816115Y-119088796D01*
X149381891Y-119268213D01*
X149049381Y-119600144D01*
X148869206Y-120034054D01*
X148868796Y-120503885D01*
X115670795Y-120503885D01*
X115671204Y-120036115D01*
X115491787Y-119601891D01*
X115159856Y-119269381D01*
X114725946Y-119089206D01*
X114256115Y-119088796D01*
X113821891Y-119268213D01*
X113489381Y-119600144D01*
X113363896Y-119902346D01*
X113203864Y-119515995D01*
X112957745Y-119441861D01*
X112129605Y-120270000D01*
X111770395Y-120270000D01*
X110942255Y-119441861D01*
X110696136Y-119515995D01*
X110503035Y-120053223D01*
X109456000Y-120053223D01*
X109456000Y-117963885D01*
X110768796Y-117963885D01*
X110948213Y-118398109D01*
X111280144Y-118730619D01*
X111582346Y-118856104D01*
X111195995Y-119016136D01*
X111121861Y-119262255D01*
X111950000Y-120090395D01*
X112778139Y-119262255D01*
X112704005Y-119016136D01*
X112290042Y-118867341D01*
X112618109Y-118731787D01*
X112950619Y-118399856D01*
X113130794Y-117965946D01*
X113130795Y-117963885D01*
X113308796Y-117963885D01*
X113488213Y-118398109D01*
X113820144Y-118730619D01*
X114254054Y-118910794D01*
X114723885Y-118911204D01*
X115158109Y-118731787D01*
X115490619Y-118399856D01*
X115670794Y-117965946D01*
X115670795Y-117963885D01*
X148868796Y-117963885D01*
X149048213Y-118398109D01*
X149380144Y-118730619D01*
X149814054Y-118910794D01*
X150283885Y-118911204D01*
X150718109Y-118731787D01*
X151050619Y-118399856D01*
X151076985Y-118336359D01*
X155066802Y-118336359D01*
X155240446Y-118756612D01*
X155561697Y-119078423D01*
X155981646Y-119252801D01*
X156175660Y-119252970D01*
X155862632Y-119268638D01*
X155478857Y-119427603D01*
X155409392Y-119669787D01*
X156210000Y-120470395D01*
X157010608Y-119669787D01*
X156941143Y-119427603D01*
X156807714Y-119380000D01*
X181624883Y-119380000D01*
X181718587Y-119851083D01*
X181985435Y-120250448D01*
X182384800Y-120517296D01*
X182855883Y-120611000D01*
X182904117Y-120611000D01*
X183375200Y-120517296D01*
X183774565Y-120250448D01*
X184041413Y-119851083D01*
X184135117Y-119380000D01*
X184041413Y-118908917D01*
X183774565Y-118509552D01*
X183375200Y-118242704D01*
X182904117Y-118149000D01*
X182855883Y-118149000D01*
X182384800Y-118242704D01*
X181985435Y-118509552D01*
X181718587Y-118908917D01*
X181624883Y-119380000D01*
X156807714Y-119380000D01*
X156443742Y-119250148D01*
X156856612Y-119079554D01*
X157178423Y-118758303D01*
X157352801Y-118338354D01*
X157353198Y-117883641D01*
X157179554Y-117463388D01*
X156858303Y-117141577D01*
X156438354Y-116967199D01*
X156244340Y-116967030D01*
X156557368Y-116951362D01*
X156826219Y-116840000D01*
X181624883Y-116840000D01*
X181718587Y-117311083D01*
X181985435Y-117710448D01*
X182384800Y-117977296D01*
X182855883Y-118071000D01*
X182904117Y-118071000D01*
X183375200Y-117977296D01*
X183774565Y-117710448D01*
X184041413Y-117311083D01*
X184135117Y-116840000D01*
X184041413Y-116368917D01*
X183774565Y-115969552D01*
X183375200Y-115702704D01*
X182904117Y-115609000D01*
X182855883Y-115609000D01*
X182384800Y-115702704D01*
X181985435Y-115969552D01*
X181718587Y-116368917D01*
X181624883Y-116840000D01*
X156826219Y-116840000D01*
X156941143Y-116792397D01*
X157010608Y-116550213D01*
X156210000Y-115749605D01*
X155409392Y-116550213D01*
X155478857Y-116792397D01*
X155976258Y-116969852D01*
X155563388Y-117140446D01*
X155241577Y-117461697D01*
X155067199Y-117881646D01*
X155066802Y-118336359D01*
X151076985Y-118336359D01*
X151230794Y-117965946D01*
X151231204Y-117496115D01*
X151051787Y-117061891D01*
X150719856Y-116729381D01*
X150285946Y-116549206D01*
X149816115Y-116548796D01*
X149381891Y-116728213D01*
X149049381Y-117060144D01*
X148869206Y-117494054D01*
X148868796Y-117963885D01*
X115670795Y-117963885D01*
X115671204Y-117496115D01*
X115491787Y-117061891D01*
X115159856Y-116729381D01*
X114857654Y-116603896D01*
X115244005Y-116443864D01*
X115318139Y-116197745D01*
X114490000Y-115369605D01*
X113661861Y-116197745D01*
X113735995Y-116443864D01*
X114149958Y-116592659D01*
X113821891Y-116728213D01*
X113489381Y-117060144D01*
X113309206Y-117494054D01*
X113308796Y-117963885D01*
X113130795Y-117963885D01*
X113131204Y-117496115D01*
X112951787Y-117061891D01*
X112619856Y-116729381D01*
X112185946Y-116549206D01*
X111716115Y-116548796D01*
X111281891Y-116728213D01*
X110949381Y-117060144D01*
X110769206Y-117494054D01*
X110768796Y-117963885D01*
X109456000Y-117963885D01*
X109456000Y-115423885D01*
X110768796Y-115423885D01*
X110948213Y-115858109D01*
X111280144Y-116190619D01*
X111714054Y-116370794D01*
X112183885Y-116371204D01*
X112618109Y-116191787D01*
X112950619Y-115859856D01*
X113076104Y-115557654D01*
X113236136Y-115944005D01*
X113482255Y-116018139D01*
X114310395Y-115190000D01*
X114669605Y-115190000D01*
X115497745Y-116018139D01*
X115743864Y-115944005D01*
X115930815Y-115423885D01*
X148868796Y-115423885D01*
X149048213Y-115858109D01*
X149380144Y-116190619D01*
X149814054Y-116370794D01*
X150283885Y-116371204D01*
X150718109Y-116191787D01*
X151050619Y-115859856D01*
X151230794Y-115425946D01*
X151230849Y-115362302D01*
X154800856Y-115362302D01*
X154828638Y-115917368D01*
X154987603Y-116301143D01*
X155229787Y-116370608D01*
X156030395Y-115570000D01*
X156389605Y-115570000D01*
X157190213Y-116370608D01*
X157432397Y-116301143D01*
X157619144Y-115777698D01*
X157591362Y-115222632D01*
X157432397Y-114838857D01*
X157190213Y-114769392D01*
X156389605Y-115570000D01*
X156030395Y-115570000D01*
X155229787Y-114769392D01*
X154987603Y-114838857D01*
X154800856Y-115362302D01*
X151230849Y-115362302D01*
X151231204Y-114956115D01*
X151051787Y-114521891D01*
X150719856Y-114189381D01*
X150285946Y-114009206D01*
X149816115Y-114008796D01*
X149381891Y-114188213D01*
X149049381Y-114520144D01*
X148869206Y-114954054D01*
X148868796Y-115423885D01*
X115930815Y-115423885D01*
X115936965Y-115406777D01*
X115909778Y-114836546D01*
X115743864Y-114435995D01*
X115497745Y-114361861D01*
X114669605Y-115190000D01*
X114310395Y-115190000D01*
X113482255Y-114361861D01*
X113236136Y-114435995D01*
X113087341Y-114849958D01*
X112951787Y-114521891D01*
X112619856Y-114189381D01*
X112185946Y-114009206D01*
X111716115Y-114008796D01*
X111281891Y-114188213D01*
X110949381Y-114520144D01*
X110769206Y-114954054D01*
X110768796Y-115423885D01*
X109456000Y-115423885D01*
X109456000Y-112883885D01*
X110768796Y-112883885D01*
X110948213Y-113318109D01*
X111280144Y-113650619D01*
X111714054Y-113830794D01*
X112183885Y-113831204D01*
X112618109Y-113651787D01*
X112950619Y-113319856D01*
X113130794Y-112885946D01*
X113130795Y-112883885D01*
X113308796Y-112883885D01*
X113488213Y-113318109D01*
X113820144Y-113650619D01*
X114122346Y-113776104D01*
X113735995Y-113936136D01*
X113661861Y-114182255D01*
X114490000Y-115010395D01*
X115318139Y-114182255D01*
X115244005Y-113936136D01*
X114830042Y-113787341D01*
X115158109Y-113651787D01*
X115490619Y-113319856D01*
X115670794Y-112885946D01*
X115670795Y-112883885D01*
X148868796Y-112883885D01*
X149048213Y-113318109D01*
X149380144Y-113650619D01*
X149814054Y-113830794D01*
X150283885Y-113831204D01*
X150718109Y-113651787D01*
X151050619Y-113319856D01*
X151076985Y-113256359D01*
X155066802Y-113256359D01*
X155240446Y-113676612D01*
X155561697Y-113998423D01*
X155981646Y-114172801D01*
X156175660Y-114172970D01*
X155862632Y-114188638D01*
X155478857Y-114347603D01*
X155409392Y-114589787D01*
X156210000Y-115390395D01*
X157010608Y-114589787D01*
X156941143Y-114347603D01*
X156443742Y-114170148D01*
X156856612Y-113999554D01*
X157178423Y-113678303D01*
X157237512Y-113536000D01*
X180390877Y-113536000D01*
X180461741Y-113606987D01*
X180711946Y-113710882D01*
X180982865Y-113711118D01*
X181233252Y-113607661D01*
X181424987Y-113416259D01*
X181528882Y-113166054D01*
X181529118Y-112895135D01*
X181425661Y-112644748D01*
X181234259Y-112453013D01*
X180984054Y-112349118D01*
X180713135Y-112348882D01*
X180462748Y-112452339D01*
X180390962Y-112524000D01*
X157237653Y-112524000D01*
X157179554Y-112383388D01*
X156858303Y-112061577D01*
X156438354Y-111887199D01*
X155983641Y-111886802D01*
X155563388Y-112060446D01*
X155241577Y-112381697D01*
X155067199Y-112801646D01*
X155066802Y-113256359D01*
X151076985Y-113256359D01*
X151230794Y-112885946D01*
X151231204Y-112416115D01*
X151051787Y-111981891D01*
X150719856Y-111649381D01*
X150285946Y-111469206D01*
X149816115Y-111468796D01*
X149381891Y-111648213D01*
X149049381Y-111980144D01*
X148869206Y-112414054D01*
X148868796Y-112883885D01*
X115670795Y-112883885D01*
X115671204Y-112416115D01*
X115491787Y-111981891D01*
X115159856Y-111649381D01*
X114725946Y-111469206D01*
X114256115Y-111468796D01*
X113821891Y-111648213D01*
X113489381Y-111980144D01*
X113309206Y-112414054D01*
X113308796Y-112883885D01*
X113130795Y-112883885D01*
X113131204Y-112416115D01*
X112951787Y-111981891D01*
X112619856Y-111649381D01*
X112317654Y-111523896D01*
X112704005Y-111363864D01*
X112778139Y-111117745D01*
X111950000Y-110289605D01*
X111121861Y-111117745D01*
X111195995Y-111363864D01*
X111609958Y-111512659D01*
X111281891Y-111648213D01*
X110949381Y-111980144D01*
X110769206Y-112414054D01*
X110768796Y-112883885D01*
X109456000Y-112883885D01*
X109456000Y-109893223D01*
X110503035Y-109893223D01*
X110530222Y-110463454D01*
X110696136Y-110864005D01*
X110942255Y-110938139D01*
X111770395Y-110110000D01*
X112129605Y-110110000D01*
X112957745Y-110938139D01*
X113203864Y-110864005D01*
X113352659Y-110450042D01*
X113488213Y-110778109D01*
X113820144Y-111110619D01*
X114254054Y-111290794D01*
X114723885Y-111291204D01*
X115158109Y-111111787D01*
X115490619Y-110779856D01*
X115670794Y-110345946D01*
X115671204Y-109876115D01*
X115491787Y-109441891D01*
X115159856Y-109109381D01*
X114725946Y-108929206D01*
X114256115Y-108928796D01*
X113821891Y-109108213D01*
X113489381Y-109440144D01*
X113363896Y-109742346D01*
X113203864Y-109355995D01*
X112957745Y-109281861D01*
X112129605Y-110110000D01*
X111770395Y-110110000D01*
X110942255Y-109281861D01*
X110696136Y-109355995D01*
X110503035Y-109893223D01*
X109456000Y-109893223D01*
X109456000Y-107803885D01*
X110768796Y-107803885D01*
X110948213Y-108238109D01*
X111280144Y-108570619D01*
X111582346Y-108696104D01*
X111195995Y-108856136D01*
X111121861Y-109102255D01*
X111950000Y-109930395D01*
X112778139Y-109102255D01*
X112704005Y-108856136D01*
X112290042Y-108707341D01*
X112618109Y-108571787D01*
X112950619Y-108239856D01*
X113130794Y-107805946D01*
X113130795Y-107803885D01*
X113308796Y-107803885D01*
X113488213Y-108238109D01*
X113820144Y-108570619D01*
X114254054Y-108750794D01*
X114723885Y-108751204D01*
X115158109Y-108571787D01*
X115490619Y-108239856D01*
X115670794Y-107805946D01*
X115671204Y-107336115D01*
X115491787Y-106901891D01*
X115159856Y-106569381D01*
X114725946Y-106389206D01*
X114256115Y-106388796D01*
X113821891Y-106568213D01*
X113489381Y-106900144D01*
X113309206Y-107334054D01*
X113308796Y-107803885D01*
X113130795Y-107803885D01*
X113131204Y-107336115D01*
X112951787Y-106901891D01*
X112619856Y-106569381D01*
X112185946Y-106389206D01*
X111716115Y-106388796D01*
X111281891Y-106568213D01*
X110949381Y-106900144D01*
X110769206Y-107334054D01*
X110768796Y-107803885D01*
X109456000Y-107803885D01*
X109456000Y-105263885D01*
X110768796Y-105263885D01*
X110948213Y-105698109D01*
X111280144Y-106030619D01*
X111714054Y-106210794D01*
X112183885Y-106211204D01*
X112618109Y-106031787D01*
X112950619Y-105699856D01*
X113130794Y-105265946D01*
X113130795Y-105263885D01*
X113308796Y-105263885D01*
X113488213Y-105698109D01*
X113820144Y-106030619D01*
X114254054Y-106210794D01*
X114723885Y-106211204D01*
X115158109Y-106031787D01*
X115490619Y-105699856D01*
X115670794Y-105265946D01*
X115671204Y-104796115D01*
X115491787Y-104361891D01*
X115159856Y-104029381D01*
X114725946Y-103849206D01*
X114256115Y-103848796D01*
X113821891Y-104028213D01*
X113489381Y-104360144D01*
X113309206Y-104794054D01*
X113308796Y-105263885D01*
X113130795Y-105263885D01*
X113131204Y-104796115D01*
X112951787Y-104361891D01*
X112619856Y-104029381D01*
X112185946Y-103849206D01*
X111716115Y-103848796D01*
X111281891Y-104028213D01*
X110949381Y-104360144D01*
X110769206Y-104794054D01*
X110768796Y-105263885D01*
X109456000Y-105263885D01*
X109456000Y-85224865D01*
X112602882Y-85224865D01*
X112706339Y-85475252D01*
X112897741Y-85666987D01*
X113147946Y-85770882D01*
X113418865Y-85771118D01*
X113669252Y-85667661D01*
X113860987Y-85476259D01*
X113964882Y-85226054D01*
X113965104Y-84970865D01*
X120730882Y-84970865D01*
X120781000Y-85092161D01*
X120781000Y-101851818D01*
X120731118Y-101971946D01*
X120730882Y-102242865D01*
X120834339Y-102493252D01*
X121025741Y-102684987D01*
X121275946Y-102788882D01*
X121546865Y-102789118D01*
X121797252Y-102685661D01*
X121988987Y-102494259D01*
X122092882Y-102244054D01*
X122093118Y-101973135D01*
X122043000Y-101851839D01*
X122043000Y-85092182D01*
X122092882Y-84972054D01*
X122093118Y-84701135D01*
X121989661Y-84450748D01*
X121798259Y-84259013D01*
X121548054Y-84155118D01*
X121277135Y-84154882D01*
X121026748Y-84258339D01*
X120835013Y-84449741D01*
X120731118Y-84699946D01*
X120730882Y-84970865D01*
X113965104Y-84970865D01*
X113965118Y-84955135D01*
X113861661Y-84704748D01*
X113790000Y-84632962D01*
X113790000Y-81160865D01*
X120222882Y-81160865D01*
X120326339Y-81411252D01*
X120517741Y-81602987D01*
X120767946Y-81706882D01*
X120869378Y-81706970D01*
X121031297Y-81868889D01*
X121023135Y-81868882D01*
X120772748Y-81972339D01*
X120581013Y-82163741D01*
X120477118Y-82413946D01*
X120476882Y-82684865D01*
X120580339Y-82935252D01*
X120771741Y-83126987D01*
X121021946Y-83230882D01*
X121123378Y-83230970D01*
X145622969Y-107730561D01*
X145622882Y-107830865D01*
X145726339Y-108081252D01*
X145917741Y-108272987D01*
X146167946Y-108376882D01*
X146438865Y-108377118D01*
X146689252Y-108273661D01*
X146880987Y-108082259D01*
X146984882Y-107832054D01*
X146984890Y-107822482D01*
X148918280Y-109755872D01*
X148869206Y-109874054D01*
X148868796Y-110343885D01*
X149048213Y-110778109D01*
X149380144Y-111110619D01*
X149814054Y-111290794D01*
X150283885Y-111291204D01*
X150718109Y-111111787D01*
X151050619Y-110779856D01*
X151076985Y-110716359D01*
X155066802Y-110716359D01*
X155240446Y-111136612D01*
X155561697Y-111458423D01*
X155981646Y-111632801D01*
X156436359Y-111633198D01*
X156856612Y-111459554D01*
X157178423Y-111138303D01*
X157352801Y-110718354D01*
X157353198Y-110263641D01*
X157179554Y-109843388D01*
X156858303Y-109521577D01*
X156438354Y-109347199D01*
X155983641Y-109346802D01*
X155563388Y-109520446D01*
X155241577Y-109841697D01*
X155067199Y-110261646D01*
X155066802Y-110716359D01*
X151076985Y-110716359D01*
X151230794Y-110345946D01*
X151231204Y-109876115D01*
X151051787Y-109441891D01*
X150719856Y-109109381D01*
X150285946Y-108929206D01*
X149816115Y-108928796D01*
X149608268Y-109014676D01*
X148397477Y-107803885D01*
X148868796Y-107803885D01*
X149048213Y-108238109D01*
X149380144Y-108570619D01*
X149814054Y-108750794D01*
X150283885Y-108751204D01*
X150718109Y-108571787D01*
X151050619Y-108239856D01*
X151076985Y-108176359D01*
X155066802Y-108176359D01*
X155240446Y-108596612D01*
X155561697Y-108918423D01*
X155981646Y-109092801D01*
X156436359Y-109093198D01*
X156856612Y-108919554D01*
X157178423Y-108598303D01*
X157352801Y-108178354D01*
X157353198Y-107723641D01*
X157179554Y-107303388D01*
X156858303Y-106981577D01*
X156438354Y-106807199D01*
X155983641Y-106806802D01*
X155563388Y-106980446D01*
X155241577Y-107301697D01*
X155067199Y-107721646D01*
X155066802Y-108176359D01*
X151076985Y-108176359D01*
X151230794Y-107805946D01*
X151231204Y-107336115D01*
X151051787Y-106901891D01*
X150719856Y-106569381D01*
X150285946Y-106389206D01*
X149816115Y-106388796D01*
X149381891Y-106568213D01*
X149049381Y-106900144D01*
X148869206Y-107334054D01*
X148868796Y-107803885D01*
X148397477Y-107803885D01*
X145857477Y-105263885D01*
X148868796Y-105263885D01*
X149048213Y-105698109D01*
X149380144Y-106030619D01*
X149814054Y-106210794D01*
X150283885Y-106211204D01*
X150718109Y-106031787D01*
X151050619Y-105699856D01*
X151076985Y-105636359D01*
X155066802Y-105636359D01*
X155240446Y-106056612D01*
X155561697Y-106378423D01*
X155981646Y-106552801D01*
X156436359Y-106553198D01*
X156856612Y-106379554D01*
X157178423Y-106058303D01*
X157352801Y-105638354D01*
X157353198Y-105183641D01*
X157179554Y-104763388D01*
X156858303Y-104441577D01*
X156438354Y-104267199D01*
X155983641Y-104266802D01*
X155563388Y-104440446D01*
X155241577Y-104761697D01*
X155067199Y-105181646D01*
X155066802Y-105636359D01*
X151076985Y-105636359D01*
X151230794Y-105265946D01*
X151231204Y-104796115D01*
X151051787Y-104361891D01*
X150719856Y-104029381D01*
X150285946Y-103849206D01*
X149816115Y-103848796D01*
X149381891Y-104028213D01*
X149049381Y-104360144D01*
X148869206Y-104794054D01*
X148868796Y-105263885D01*
X145857477Y-105263885D01*
X132168457Y-91574865D01*
X137494882Y-91574865D01*
X137598339Y-91825252D01*
X137789741Y-92016987D01*
X138039946Y-92120882D01*
X138310865Y-92121118D01*
X138561252Y-92017661D01*
X138633038Y-91946000D01*
X156514877Y-91946000D01*
X156585741Y-92016987D01*
X156835946Y-92120882D01*
X157106865Y-92121118D01*
X157357252Y-92017661D01*
X157548987Y-91826259D01*
X157652882Y-91576054D01*
X157653118Y-91305135D01*
X157549661Y-91054748D01*
X157358259Y-90863013D01*
X157108054Y-90759118D01*
X156837135Y-90758882D01*
X156586748Y-90862339D01*
X156514962Y-90934000D01*
X155571076Y-90934000D01*
X155620882Y-90814054D01*
X155621118Y-90543135D01*
X155517661Y-90292748D01*
X155326259Y-90101013D01*
X155076054Y-89997118D01*
X154805135Y-89996882D01*
X154554748Y-90100339D01*
X154482962Y-90172000D01*
X153869031Y-90172000D01*
X153992987Y-90048259D01*
X154096882Y-89798054D01*
X154097118Y-89527135D01*
X153993661Y-89276748D01*
X153802259Y-89085013D01*
X153552054Y-88981118D01*
X153281135Y-88980882D01*
X153030748Y-89084339D01*
X152958962Y-89156000D01*
X140919123Y-89156000D01*
X140848259Y-89085013D01*
X140598054Y-88981118D01*
X140327135Y-88980882D01*
X140076748Y-89084339D01*
X139885013Y-89275741D01*
X139781118Y-89525946D01*
X139780882Y-89796865D01*
X139884339Y-90047252D01*
X140008870Y-90172000D01*
X139903123Y-90172000D01*
X139832259Y-90101013D01*
X139582054Y-89997118D01*
X139311135Y-89996882D01*
X139060748Y-90100339D01*
X138869013Y-90291741D01*
X138765118Y-90541946D01*
X138764882Y-90812865D01*
X138814934Y-90934000D01*
X138633123Y-90934000D01*
X138562259Y-90863013D01*
X138312054Y-90759118D01*
X138041135Y-90758882D01*
X137790748Y-90862339D01*
X137599013Y-91053741D01*
X137495118Y-91303946D01*
X137494882Y-91574865D01*
X132168457Y-91574865D01*
X121585031Y-80991439D01*
X121585118Y-80891135D01*
X121481661Y-80640748D01*
X121290259Y-80449013D01*
X121040054Y-80345118D01*
X120769135Y-80344882D01*
X120518748Y-80448339D01*
X120327013Y-80639741D01*
X120223118Y-80889946D01*
X120222882Y-81160865D01*
X113790000Y-81160865D01*
X113790000Y-77722000D01*
X114100969Y-77722000D01*
X113977013Y-77845741D01*
X113873118Y-78095946D01*
X113872882Y-78366865D01*
X113976339Y-78617252D01*
X114167741Y-78808987D01*
X114417946Y-78912882D01*
X114688865Y-78913118D01*
X114810161Y-78863000D01*
X131310632Y-78863000D01*
X138491816Y-86044184D01*
X138696526Y-86180968D01*
X138736589Y-86188937D01*
X138938000Y-86229000D01*
X139951818Y-86229000D01*
X140071946Y-86278882D01*
X140342865Y-86279118D01*
X140593252Y-86175661D01*
X140784987Y-85984259D01*
X140832343Y-85870213D01*
X168469392Y-85870213D01*
X168538857Y-86112397D01*
X169062302Y-86299144D01*
X169617368Y-86271362D01*
X170001143Y-86112397D01*
X170070608Y-85870213D01*
X171009392Y-85870213D01*
X171078857Y-86112397D01*
X171602302Y-86299144D01*
X172157368Y-86271362D01*
X172541143Y-86112397D01*
X172610608Y-85870213D01*
X171810000Y-85069605D01*
X171009392Y-85870213D01*
X170070608Y-85870213D01*
X169270000Y-85069605D01*
X168469392Y-85870213D01*
X140832343Y-85870213D01*
X140888882Y-85734054D01*
X140889118Y-85463135D01*
X140785661Y-85212748D01*
X140594259Y-85021013D01*
X140344054Y-84917118D01*
X140073135Y-84916882D01*
X139951839Y-84967000D01*
X139199368Y-84967000D01*
X138914670Y-84682302D01*
X167860856Y-84682302D01*
X167888638Y-85237368D01*
X168047603Y-85621143D01*
X168289787Y-85690608D01*
X169090395Y-84890000D01*
X169449605Y-84890000D01*
X170250213Y-85690608D01*
X170492397Y-85621143D01*
X170536453Y-85497656D01*
X170587603Y-85621143D01*
X170829787Y-85690608D01*
X171630395Y-84890000D01*
X171989605Y-84890000D01*
X172790213Y-85690608D01*
X173032397Y-85621143D01*
X173212486Y-85116359D01*
X178286802Y-85116359D01*
X178460446Y-85536612D01*
X178781697Y-85858423D01*
X179201646Y-86032801D01*
X179656359Y-86033198D01*
X180076612Y-85859554D01*
X180398423Y-85538303D01*
X180572801Y-85118354D01*
X180572802Y-85116359D01*
X180826802Y-85116359D01*
X181000446Y-85536612D01*
X181321697Y-85858423D01*
X181741646Y-86032801D01*
X182196359Y-86033198D01*
X182616612Y-85859554D01*
X182938423Y-85538303D01*
X183112801Y-85118354D01*
X183113198Y-84663641D01*
X182939554Y-84243388D01*
X182618303Y-83921577D01*
X182198354Y-83747199D01*
X181743641Y-83746802D01*
X181323388Y-83920446D01*
X181001577Y-84241697D01*
X180827199Y-84661646D01*
X180826802Y-85116359D01*
X180572802Y-85116359D01*
X180573198Y-84663641D01*
X180399554Y-84243388D01*
X180078303Y-83921577D01*
X179658354Y-83747199D01*
X179203641Y-83746802D01*
X178783388Y-83920446D01*
X178461577Y-84241697D01*
X178287199Y-84661646D01*
X178286802Y-85116359D01*
X173212486Y-85116359D01*
X173219144Y-85097698D01*
X173191362Y-84542632D01*
X173032397Y-84158857D01*
X172790213Y-84089392D01*
X171989605Y-84890000D01*
X171630395Y-84890000D01*
X170829787Y-84089392D01*
X170587603Y-84158857D01*
X170543547Y-84282344D01*
X170492397Y-84158857D01*
X170250213Y-84089392D01*
X169449605Y-84890000D01*
X169090395Y-84890000D01*
X168289787Y-84089392D01*
X168047603Y-84158857D01*
X167860856Y-84682302D01*
X138914670Y-84682302D01*
X137679233Y-83446865D01*
X139780882Y-83446865D01*
X139884339Y-83697252D01*
X140075741Y-83888987D01*
X140325946Y-83992882D01*
X140596865Y-83993118D01*
X140847252Y-83889661D01*
X141038987Y-83698259D01*
X141142882Y-83448054D01*
X141142970Y-83346622D01*
X141316099Y-83173493D01*
X147528761Y-83173493D01*
X147738563Y-83681251D01*
X148126705Y-84070072D01*
X148634097Y-84280759D01*
X149183493Y-84281239D01*
X149691251Y-84071437D01*
X150080072Y-83683295D01*
X150226684Y-83330213D01*
X168469392Y-83330213D01*
X168538857Y-83572397D01*
X168662344Y-83616453D01*
X168538857Y-83667603D01*
X168469392Y-83909787D01*
X169270000Y-84710395D01*
X170070608Y-83909787D01*
X171009392Y-83909787D01*
X171810000Y-84710395D01*
X172610608Y-83909787D01*
X172541143Y-83667603D01*
X172017698Y-83480856D01*
X171462632Y-83508638D01*
X171078857Y-83667603D01*
X171009392Y-83909787D01*
X170070608Y-83909787D01*
X170001143Y-83667603D01*
X169877656Y-83623547D01*
X170001143Y-83572397D01*
X170070608Y-83330213D01*
X169270000Y-82529605D01*
X168469392Y-83330213D01*
X150226684Y-83330213D01*
X150290759Y-83175903D01*
X150291239Y-82626507D01*
X150091169Y-82142302D01*
X167860856Y-82142302D01*
X167888638Y-82697368D01*
X168047603Y-83081143D01*
X168289787Y-83150608D01*
X169090395Y-82350000D01*
X169449605Y-82350000D01*
X170250213Y-83150608D01*
X170492397Y-83081143D01*
X170672486Y-82576359D01*
X180826802Y-82576359D01*
X181000446Y-82996612D01*
X181321697Y-83318423D01*
X181741646Y-83492801D01*
X182196359Y-83493198D01*
X182616612Y-83319554D01*
X182938423Y-82998303D01*
X182997512Y-82856000D01*
X183140408Y-82856000D01*
X183494000Y-83209592D01*
X183494000Y-98542877D01*
X183423013Y-98613741D01*
X183319118Y-98863946D01*
X183318882Y-99134865D01*
X183422339Y-99385252D01*
X183613741Y-99576987D01*
X183863946Y-99680882D01*
X184134865Y-99681118D01*
X184385252Y-99577661D01*
X184576987Y-99386259D01*
X184680882Y-99136054D01*
X184681118Y-98865135D01*
X184577661Y-98614748D01*
X184506000Y-98542962D01*
X184506000Y-83000000D01*
X184467483Y-82806362D01*
X184357796Y-82642204D01*
X183707796Y-81992204D01*
X183543638Y-81882517D01*
X183350000Y-81844000D01*
X182997653Y-81844000D01*
X182939554Y-81703388D01*
X182618303Y-81381577D01*
X182198354Y-81207199D01*
X181743641Y-81206802D01*
X181323388Y-81380446D01*
X181001577Y-81701697D01*
X180827199Y-82121646D01*
X180826802Y-82576359D01*
X170672486Y-82576359D01*
X170679144Y-82557698D01*
X170651362Y-82002632D01*
X170492397Y-81618857D01*
X170250213Y-81549392D01*
X169449605Y-82350000D01*
X169090395Y-82350000D01*
X168289787Y-81549392D01*
X168047603Y-81618857D01*
X167860856Y-82142302D01*
X150091169Y-82142302D01*
X150081437Y-82118749D01*
X149693295Y-81729928D01*
X149185903Y-81519241D01*
X148636507Y-81518761D01*
X148128749Y-81728563D01*
X147739928Y-82116705D01*
X147529241Y-82624097D01*
X147528761Y-83173493D01*
X141316099Y-83173493D01*
X143119805Y-81369787D01*
X168469392Y-81369787D01*
X169270000Y-82170395D01*
X170070608Y-81369787D01*
X170001143Y-81127603D01*
X169477698Y-80940856D01*
X168922632Y-80968638D01*
X168538857Y-81127603D01*
X168469392Y-81369787D01*
X143119805Y-81369787D01*
X144453233Y-80036359D01*
X180826802Y-80036359D01*
X181000446Y-80456612D01*
X181321697Y-80778423D01*
X181741646Y-80952801D01*
X182196359Y-80953198D01*
X182616612Y-80779554D01*
X182938423Y-80458303D01*
X183112801Y-80038354D01*
X183113198Y-79583641D01*
X182939554Y-79163388D01*
X182618303Y-78841577D01*
X182198354Y-78667199D01*
X181743641Y-78666802D01*
X181323388Y-78840446D01*
X181001577Y-79161697D01*
X180827199Y-79581646D01*
X180826802Y-80036359D01*
X144453233Y-80036359D01*
X146993233Y-77496359D01*
X180826802Y-77496359D01*
X181000446Y-77916612D01*
X181321697Y-78238423D01*
X181741646Y-78412801D01*
X182196359Y-78413198D01*
X182616612Y-78239554D01*
X182938423Y-77918303D01*
X183112801Y-77498354D01*
X183113198Y-77043641D01*
X182939554Y-76623388D01*
X182618303Y-76301577D01*
X182198354Y-76127199D01*
X181743641Y-76126802D01*
X181323388Y-76300446D01*
X181001577Y-76621697D01*
X180827199Y-77041646D01*
X180826802Y-77496359D01*
X146993233Y-77496359D01*
X153859379Y-70630213D01*
X168469392Y-70630213D01*
X168538857Y-70872397D01*
X169062302Y-71059144D01*
X169617368Y-71031362D01*
X170001143Y-70872397D01*
X170070608Y-70630213D01*
X169270000Y-69829605D01*
X168469392Y-70630213D01*
X153859379Y-70630213D01*
X154027796Y-70461796D01*
X154035272Y-70450608D01*
X154137483Y-70297638D01*
X154176000Y-70104000D01*
X154176000Y-69442302D01*
X167860856Y-69442302D01*
X167888638Y-69997368D01*
X168047603Y-70381143D01*
X168289787Y-70450608D01*
X169090395Y-69650000D01*
X169449605Y-69650000D01*
X170250213Y-70450608D01*
X170492397Y-70381143D01*
X170679144Y-69857698D01*
X170651362Y-69302632D01*
X170492397Y-68918857D01*
X170250213Y-68849392D01*
X169449605Y-69650000D01*
X169090395Y-69650000D01*
X168289787Y-68849392D01*
X168047603Y-68918857D01*
X167860856Y-69442302D01*
X154176000Y-69442302D01*
X154176000Y-69037123D01*
X154246987Y-68966259D01*
X154350882Y-68716054D01*
X154351118Y-68445135D01*
X154247661Y-68194748D01*
X154056259Y-68003013D01*
X153806054Y-67899118D01*
X153535135Y-67898882D01*
X153284748Y-68002339D01*
X153093013Y-68193741D01*
X152989118Y-68443946D01*
X152988882Y-68714865D01*
X153092339Y-68965252D01*
X153164000Y-69037038D01*
X153164000Y-69894408D01*
X140427439Y-82630969D01*
X140327135Y-82630882D01*
X140076748Y-82734339D01*
X139885013Y-82925741D01*
X139781118Y-83175946D01*
X139780882Y-83446865D01*
X137679233Y-83446865D01*
X132018184Y-77785816D01*
X131813473Y-77649032D01*
X131572000Y-77601000D01*
X127831510Y-77601000D01*
X127934882Y-77352054D01*
X127935118Y-77081135D01*
X127831661Y-76830748D01*
X127640259Y-76639013D01*
X127390054Y-76535118D01*
X127119135Y-76534882D01*
X126868748Y-76638339D01*
X126796962Y-76710000D01*
X113284000Y-76710000D01*
X113090362Y-76748517D01*
X112926204Y-76858204D01*
X112816517Y-77022362D01*
X112778000Y-77216000D01*
X112778000Y-84632877D01*
X112707013Y-84703741D01*
X112603118Y-84953946D01*
X112602882Y-85224865D01*
X109456000Y-85224865D01*
X109456000Y-75064865D01*
X115650882Y-75064865D01*
X115754339Y-75315252D01*
X115945741Y-75506987D01*
X116195946Y-75610882D01*
X116466865Y-75611118D01*
X116717252Y-75507661D01*
X116789038Y-75436000D01*
X129844877Y-75436000D01*
X129915741Y-75506987D01*
X130165946Y-75610882D01*
X130436865Y-75611118D01*
X130687252Y-75507661D01*
X130878987Y-75316259D01*
X130982882Y-75066054D01*
X130983118Y-74795135D01*
X130879661Y-74544748D01*
X130688259Y-74353013D01*
X130438054Y-74249118D01*
X130167135Y-74248882D01*
X129916748Y-74352339D01*
X129844962Y-74424000D01*
X116789123Y-74424000D01*
X116718259Y-74353013D01*
X116468054Y-74249118D01*
X116197135Y-74248882D01*
X115946748Y-74352339D01*
X115755013Y-74543741D01*
X115651118Y-74793946D01*
X115650882Y-75064865D01*
X109456000Y-75064865D01*
X109456000Y-67437856D01*
X159203704Y-67437856D01*
X159462880Y-68065109D01*
X159942367Y-68545433D01*
X160569167Y-68805704D01*
X161247856Y-68806296D01*
X161875109Y-68547120D01*
X162332813Y-68090213D01*
X168469392Y-68090213D01*
X168538857Y-68332397D01*
X168662344Y-68376453D01*
X168538857Y-68427603D01*
X168469392Y-68669787D01*
X169270000Y-69470395D01*
X170070608Y-68669787D01*
X170001143Y-68427603D01*
X169877656Y-68383547D01*
X170001143Y-68332397D01*
X170070608Y-68090213D01*
X171009392Y-68090213D01*
X171078857Y-68332397D01*
X171602302Y-68519144D01*
X172157368Y-68491362D01*
X172541143Y-68332397D01*
X172610608Y-68090213D01*
X171810000Y-67289605D01*
X171009392Y-68090213D01*
X170070608Y-68090213D01*
X169270000Y-67289605D01*
X168469392Y-68090213D01*
X162332813Y-68090213D01*
X162355433Y-68067633D01*
X162615704Y-67440833D01*
X162616173Y-66902302D01*
X167860856Y-66902302D01*
X167888638Y-67457368D01*
X168047603Y-67841143D01*
X168289787Y-67910608D01*
X169090395Y-67110000D01*
X169449605Y-67110000D01*
X170250213Y-67910608D01*
X170492397Y-67841143D01*
X170536453Y-67717656D01*
X170587603Y-67841143D01*
X170829787Y-67910608D01*
X171630395Y-67110000D01*
X171989605Y-67110000D01*
X172790213Y-67910608D01*
X173032397Y-67841143D01*
X173212486Y-67336359D01*
X178286802Y-67336359D01*
X178460446Y-67756612D01*
X178781697Y-68078423D01*
X179201646Y-68252801D01*
X179656359Y-68253198D01*
X180076612Y-68079554D01*
X180398423Y-67758303D01*
X180572801Y-67338354D01*
X180572802Y-67336359D01*
X180826802Y-67336359D01*
X181000446Y-67756612D01*
X181321697Y-68078423D01*
X181741646Y-68252801D01*
X182196359Y-68253198D01*
X182616612Y-68079554D01*
X182938423Y-67758303D01*
X183112801Y-67338354D01*
X183113198Y-66883641D01*
X182939554Y-66463388D01*
X182618303Y-66141577D01*
X182198354Y-65967199D01*
X181743641Y-65966802D01*
X181323388Y-66140446D01*
X181001577Y-66461697D01*
X180827199Y-66881646D01*
X180826802Y-67336359D01*
X180572802Y-67336359D01*
X180573198Y-66883641D01*
X180399554Y-66463388D01*
X180078303Y-66141577D01*
X179658354Y-65967199D01*
X179203641Y-65966802D01*
X178783388Y-66140446D01*
X178461577Y-66461697D01*
X178287199Y-66881646D01*
X178286802Y-67336359D01*
X173212486Y-67336359D01*
X173219144Y-67317698D01*
X173191362Y-66762632D01*
X173032397Y-66378857D01*
X172790213Y-66309392D01*
X171989605Y-67110000D01*
X171630395Y-67110000D01*
X170829787Y-66309392D01*
X170587603Y-66378857D01*
X170543547Y-66502344D01*
X170492397Y-66378857D01*
X170250213Y-66309392D01*
X169449605Y-67110000D01*
X169090395Y-67110000D01*
X168289787Y-66309392D01*
X168047603Y-66378857D01*
X167860856Y-66902302D01*
X162616173Y-66902302D01*
X162616296Y-66762144D01*
X162357120Y-66134891D01*
X162352025Y-66129787D01*
X168469392Y-66129787D01*
X169270000Y-66930395D01*
X170070608Y-66129787D01*
X171009392Y-66129787D01*
X171810000Y-66930395D01*
X172610608Y-66129787D01*
X172541143Y-65887603D01*
X172017698Y-65700856D01*
X171462632Y-65728638D01*
X171078857Y-65887603D01*
X171009392Y-66129787D01*
X170070608Y-66129787D01*
X170001143Y-65887603D01*
X169477698Y-65700856D01*
X168922632Y-65728638D01*
X168538857Y-65887603D01*
X168469392Y-66129787D01*
X162352025Y-66129787D01*
X161877633Y-65654567D01*
X161250833Y-65394296D01*
X160572144Y-65393704D01*
X159944891Y-65652880D01*
X159464567Y-66132367D01*
X159204296Y-66759167D01*
X159203704Y-67437856D01*
X109456000Y-67437856D01*
X109456000Y-60000000D01*
X110044000Y-60000000D01*
X110192892Y-60748529D01*
X110616899Y-61383101D01*
X111251471Y-61807108D01*
X112000000Y-61956000D01*
X112748529Y-61807108D01*
X113383101Y-61383101D01*
X113807108Y-60748529D01*
X113956000Y-60000000D01*
X182044000Y-60000000D01*
X182192892Y-60748529D01*
X182616899Y-61383101D01*
X183251471Y-61807108D01*
X184000000Y-61956000D01*
X184748529Y-61807108D01*
X185383101Y-61383101D01*
X185807108Y-60748529D01*
X185956000Y-60000000D01*
X185807108Y-59251471D01*
X185383101Y-58616899D01*
X184748529Y-58192892D01*
X184000000Y-58044000D01*
X183251471Y-58192892D01*
X182616899Y-58616899D01*
X182192892Y-59251471D01*
X182044000Y-60000000D01*
X113956000Y-60000000D01*
X113807108Y-59251471D01*
X113383101Y-58616899D01*
X112748529Y-58192892D01*
X112000000Y-58044000D01*
X111251471Y-58192892D01*
X110616899Y-58616899D01*
X110192892Y-59251471D01*
X110044000Y-60000000D01*
X109456000Y-60000000D01*
X109456000Y-57456000D01*
X186544000Y-57456000D01*
X186544000Y-140544000D01*
X186544000Y-140544000D01*
G37*
X186544000Y-140544000D02*
X109456000Y-140544000D01*
X109456000Y-138000000D01*
X145044000Y-138000000D01*
X145192892Y-138748529D01*
X145616899Y-139383101D01*
X146251471Y-139807108D01*
X147000000Y-139956000D01*
X147748529Y-139807108D01*
X148383101Y-139383101D01*
X148807108Y-138748529D01*
X148919406Y-138183970D01*
X154105635Y-138183970D01*
X154265418Y-138502739D01*
X155056187Y-138812723D01*
X155905387Y-138796497D01*
X156614582Y-138502739D01*
X156774365Y-138183970D01*
X167825635Y-138183970D01*
X167985418Y-138502739D01*
X168776187Y-138812723D01*
X169625387Y-138796497D01*
X170334582Y-138502739D01*
X170443347Y-138285750D01*
X176615000Y-138285750D01*
X176615000Y-139876309D01*
X176711673Y-140109698D01*
X176890301Y-140288327D01*
X177123690Y-140385000D01*
X178714250Y-140385000D01*
X178873000Y-140226250D01*
X178873000Y-138127000D01*
X179127000Y-138127000D01*
X179127000Y-140226250D01*
X179285750Y-140385000D01*
X180876310Y-140385000D01*
X181109699Y-140288327D01*
X181288327Y-140109698D01*
X181385000Y-139876309D01*
X181385000Y-138285750D01*
X181226250Y-138127000D01*
X179127000Y-138127000D01*
X178873000Y-138127000D01*
X176773750Y-138127000D01*
X176615000Y-138285750D01*
X170443347Y-138285750D01*
X170494365Y-138183970D01*
X169160000Y-136849605D01*
X167825635Y-138183970D01*
X156774365Y-138183970D01*
X155440000Y-136849605D01*
X154105635Y-138183970D01*
X148919406Y-138183970D01*
X148956000Y-138000000D01*
X148807108Y-137251471D01*
X148383101Y-136616899D01*
X147888155Y-136286187D01*
X153297277Y-136286187D01*
X153313503Y-137135387D01*
X153607261Y-137844582D01*
X153926030Y-138004365D01*
X155260395Y-136670000D01*
X155619605Y-136670000D01*
X156953970Y-138004365D01*
X157272739Y-137844582D01*
X157582723Y-137053813D01*
X157568056Y-136286187D01*
X167017277Y-136286187D01*
X167033503Y-137135387D01*
X167327261Y-137844582D01*
X167646030Y-138004365D01*
X168980395Y-136670000D01*
X169339605Y-136670000D01*
X170673970Y-138004365D01*
X170992739Y-137844582D01*
X171302723Y-137053813D01*
X171286497Y-136204613D01*
X171252979Y-136123691D01*
X176615000Y-136123691D01*
X176615000Y-137714250D01*
X176773750Y-137873000D01*
X178873000Y-137873000D01*
X178873000Y-135773750D01*
X179127000Y-135773750D01*
X179127000Y-137873000D01*
X181226250Y-137873000D01*
X181385000Y-137714250D01*
X181385000Y-136123691D01*
X181288327Y-135890302D01*
X181109699Y-135711673D01*
X180876310Y-135615000D01*
X179285750Y-135615000D01*
X179127000Y-135773750D01*
X178873000Y-135773750D01*
X178714250Y-135615000D01*
X177123690Y-135615000D01*
X176890301Y-135711673D01*
X176711673Y-135890302D01*
X176615000Y-136123691D01*
X171252979Y-136123691D01*
X170992739Y-135495418D01*
X170673970Y-135335635D01*
X169339605Y-136670000D01*
X168980395Y-136670000D01*
X167646030Y-135335635D01*
X167327261Y-135495418D01*
X167017277Y-136286187D01*
X157568056Y-136286187D01*
X157566497Y-136204613D01*
X157272739Y-135495418D01*
X156953970Y-135335635D01*
X155619605Y-136670000D01*
X155260395Y-136670000D01*
X153926030Y-135335635D01*
X153607261Y-135495418D01*
X153297277Y-136286187D01*
X147888155Y-136286187D01*
X147748529Y-136192892D01*
X147000000Y-136044000D01*
X146251471Y-136192892D01*
X145616899Y-136616899D01*
X145192892Y-137251471D01*
X145044000Y-138000000D01*
X109456000Y-138000000D01*
X109456000Y-135156030D01*
X154105635Y-135156030D01*
X155440000Y-136490395D01*
X156774365Y-135156030D01*
X156614582Y-134837261D01*
X155823813Y-134527277D01*
X154974613Y-134543503D01*
X154265418Y-134837261D01*
X154105635Y-135156030D01*
X109456000Y-135156030D01*
X109456000Y-133203885D01*
X110768796Y-133203885D01*
X110948213Y-133638109D01*
X111280144Y-133970619D01*
X111714054Y-134150794D01*
X112183885Y-134151204D01*
X112618109Y-133971787D01*
X112950619Y-133639856D01*
X113130794Y-133205946D01*
X113130795Y-133203885D01*
X113308796Y-133203885D01*
X113488213Y-133638109D01*
X113820144Y-133970619D01*
X114254054Y-134150794D01*
X114723885Y-134151204D01*
X115143689Y-133977745D01*
X149221861Y-133977745D01*
X149295995Y-134223864D01*
X149833223Y-134416965D01*
X150403454Y-134389778D01*
X150803717Y-134223983D01*
X157868804Y-134223983D01*
X158040625Y-134639823D01*
X158358503Y-134958256D01*
X158774043Y-135130804D01*
X159223983Y-135131196D01*
X159639823Y-134959375D01*
X159958256Y-134641497D01*
X160130804Y-134225957D01*
X160131196Y-133776017D01*
X159959375Y-133360177D01*
X159641497Y-133041744D01*
X159225957Y-132869196D01*
X158776017Y-132868804D01*
X158360177Y-133040625D01*
X158041744Y-133358503D01*
X157869196Y-133774043D01*
X157868804Y-134223983D01*
X150803717Y-134223983D01*
X150804005Y-134223864D01*
X150878139Y-133977745D01*
X150050000Y-133149605D01*
X149221861Y-133977745D01*
X115143689Y-133977745D01*
X115158109Y-133971787D01*
X115490619Y-133639856D01*
X115670794Y-133205946D01*
X115671189Y-132753223D01*
X148603035Y-132753223D01*
X148630222Y-133323454D01*
X148796136Y-133724005D01*
X149042255Y-133798139D01*
X149870395Y-132970000D01*
X150229605Y-132970000D01*
X151057745Y-133798139D01*
X151303864Y-133724005D01*
X151496965Y-133186777D01*
X151469778Y-132616546D01*
X151303864Y-132215995D01*
X151057745Y-132141861D01*
X150229605Y-132970000D01*
X149870395Y-132970000D01*
X149042255Y-132141861D01*
X148796136Y-132215995D01*
X148603035Y-132753223D01*
X115671189Y-132753223D01*
X115671204Y-132736115D01*
X115491787Y-132301891D01*
X115159856Y-131969381D01*
X114725946Y-131789206D01*
X114256115Y-131788796D01*
X113821891Y-131968213D01*
X113489381Y-132300144D01*
X113309206Y-132734054D01*
X113308796Y-133203885D01*
X113130795Y-133203885D01*
X113131204Y-132736115D01*
X112951787Y-132301891D01*
X112619856Y-131969381D01*
X112185946Y-131789206D01*
X111716115Y-131788796D01*
X111281891Y-131968213D01*
X110949381Y-132300144D01*
X110769206Y-132734054D01*
X110768796Y-133203885D01*
X109456000Y-133203885D01*
X109456000Y-130663885D01*
X110768796Y-130663885D01*
X110948213Y-131098109D01*
X111280144Y-131430619D01*
X111714054Y-131610794D01*
X112183885Y-131611204D01*
X112618109Y-131431787D01*
X112950619Y-131099856D01*
X113130794Y-130665946D01*
X113130795Y-130663885D01*
X113308796Y-130663885D01*
X113488213Y-131098109D01*
X113820144Y-131430619D01*
X114254054Y-131610794D01*
X114723885Y-131611204D01*
X115158109Y-131431787D01*
X115490619Y-131099856D01*
X115670794Y-130665946D01*
X115670795Y-130663885D01*
X148868796Y-130663885D01*
X149048213Y-131098109D01*
X149380144Y-131430619D01*
X149682346Y-131556104D01*
X149295995Y-131716136D01*
X149221861Y-131962255D01*
X150050000Y-132790395D01*
X150878139Y-131962255D01*
X150804005Y-131716136D01*
X150390042Y-131567341D01*
X150718109Y-131431787D01*
X151050619Y-131099856D01*
X151230794Y-130665946D01*
X151231204Y-130196115D01*
X151051787Y-129761891D01*
X150964913Y-129674865D01*
X155782882Y-129674865D01*
X155886339Y-129925252D01*
X156077741Y-130116987D01*
X156327946Y-130220882D01*
X156598865Y-130221118D01*
X156849252Y-130117661D01*
X156921038Y-130046000D01*
X157026969Y-130046000D01*
X156903013Y-130169741D01*
X156799118Y-130419946D01*
X156798882Y-130690865D01*
X156902339Y-130941252D01*
X157093741Y-131132987D01*
X157343946Y-131236882D01*
X157614865Y-131237118D01*
X157865252Y-131133661D01*
X157937038Y-131062000D01*
X160572408Y-131062000D01*
X161034000Y-131523592D01*
X161034000Y-132985331D01*
X160900177Y-133040625D01*
X160581744Y-133358503D01*
X160409196Y-133774043D01*
X160408804Y-134223983D01*
X160580625Y-134639823D01*
X160898503Y-134958256D01*
X161314043Y-135130804D01*
X161763983Y-135131196D01*
X162179823Y-134959375D01*
X162498256Y-134641497D01*
X162554926Y-134505021D01*
X162610625Y-134639823D01*
X162928503Y-134958256D01*
X163344043Y-135130804D01*
X163793983Y-135131196D01*
X164180437Y-134971517D01*
X165318088Y-134971517D01*
X165386077Y-135212460D01*
X165905171Y-135397201D01*
X166455448Y-135369230D01*
X166833923Y-135212460D01*
X166849846Y-135156030D01*
X167825635Y-135156030D01*
X169160000Y-136490395D01*
X170494365Y-135156030D01*
X170334582Y-134837261D01*
X169543813Y-134527277D01*
X168694613Y-134543503D01*
X167985418Y-134837261D01*
X167825635Y-135156030D01*
X166849846Y-135156030D01*
X166901912Y-134971517D01*
X166110000Y-134179605D01*
X165318088Y-134971517D01*
X164180437Y-134971517D01*
X164209823Y-134959375D01*
X164528256Y-134641497D01*
X164700804Y-134225957D01*
X164701179Y-133795171D01*
X164712799Y-133795171D01*
X164740770Y-134345448D01*
X164897540Y-134723923D01*
X165138483Y-134791912D01*
X165930395Y-134000000D01*
X166289605Y-134000000D01*
X167081517Y-134791912D01*
X167322460Y-134723923D01*
X167507201Y-134204829D01*
X167479230Y-133654552D01*
X167322460Y-133276077D01*
X167081517Y-133208088D01*
X166289605Y-134000000D01*
X165930395Y-134000000D01*
X165138483Y-133208088D01*
X164897540Y-133276077D01*
X164712799Y-133795171D01*
X164701179Y-133795171D01*
X164701196Y-133776017D01*
X164529375Y-133360177D01*
X164211497Y-133041744D01*
X164179562Y-133028483D01*
X165318088Y-133028483D01*
X166110000Y-133820395D01*
X166901912Y-133028483D01*
X166833923Y-132787540D01*
X166314829Y-132602799D01*
X165764552Y-132630770D01*
X165386077Y-132787540D01*
X165318088Y-133028483D01*
X164179562Y-133028483D01*
X164076000Y-132985480D01*
X164076000Y-132074000D01*
X164037483Y-131880362D01*
X163927796Y-131716204D01*
X162461592Y-130250000D01*
X176861536Y-130250000D01*
X176861536Y-133750000D01*
X176888103Y-133891190D01*
X176971546Y-134020865D01*
X177098866Y-134107859D01*
X177250000Y-134138464D01*
X180750000Y-134138464D01*
X180891190Y-134111897D01*
X181020865Y-134028454D01*
X181107859Y-133901134D01*
X181138464Y-133750000D01*
X181138464Y-133250000D01*
X181561536Y-133250000D01*
X181561536Y-136750000D01*
X181588103Y-136891190D01*
X181671546Y-137020865D01*
X181798866Y-137107859D01*
X181950000Y-137138464D01*
X185450000Y-137138464D01*
X185591190Y-137111897D01*
X185720865Y-137028454D01*
X185807859Y-136901134D01*
X185838464Y-136750000D01*
X185838464Y-133250000D01*
X185811897Y-133108810D01*
X185728454Y-132979135D01*
X185601134Y-132892141D01*
X185450000Y-132861536D01*
X181950000Y-132861536D01*
X181808810Y-132888103D01*
X181679135Y-132971546D01*
X181592141Y-133098866D01*
X181561536Y-133250000D01*
X181138464Y-133250000D01*
X181138464Y-130250000D01*
X181111897Y-130108810D01*
X181028454Y-129979135D01*
X180901134Y-129892141D01*
X180750000Y-129861536D01*
X177250000Y-129861536D01*
X177108810Y-129888103D01*
X176979135Y-129971546D01*
X176892141Y-130098866D01*
X176861536Y-130250000D01*
X162461592Y-130250000D01*
X161393796Y-129182204D01*
X161229638Y-129072517D01*
X161036000Y-129034000D01*
X156921123Y-129034000D01*
X156850259Y-128963013D01*
X156600054Y-128859118D01*
X156329135Y-128858882D01*
X156078748Y-128962339D01*
X155887013Y-129153741D01*
X155783118Y-129403946D01*
X155782882Y-129674865D01*
X150964913Y-129674865D01*
X150719856Y-129429381D01*
X150285946Y-129249206D01*
X149816115Y-129248796D01*
X149381891Y-129428213D01*
X149049381Y-129760144D01*
X148869206Y-130194054D01*
X148868796Y-130663885D01*
X115670795Y-130663885D01*
X115671204Y-130196115D01*
X115491787Y-129761891D01*
X115159856Y-129429381D01*
X114725946Y-129249206D01*
X114256115Y-129248796D01*
X113821891Y-129428213D01*
X113489381Y-129760144D01*
X113309206Y-130194054D01*
X113308796Y-130663885D01*
X113130795Y-130663885D01*
X113131204Y-130196115D01*
X112951787Y-129761891D01*
X112619856Y-129429381D01*
X112317654Y-129303896D01*
X112704005Y-129143864D01*
X112778139Y-128897745D01*
X111950000Y-128069605D01*
X111121861Y-128897745D01*
X111195995Y-129143864D01*
X111609958Y-129292659D01*
X111281891Y-129428213D01*
X110949381Y-129760144D01*
X110769206Y-130194054D01*
X110768796Y-130663885D01*
X109456000Y-130663885D01*
X109456000Y-127673223D01*
X110503035Y-127673223D01*
X110530222Y-128243454D01*
X110696136Y-128644005D01*
X110942255Y-128718139D01*
X111770395Y-127890000D01*
X112129605Y-127890000D01*
X112957745Y-128718139D01*
X113203864Y-128644005D01*
X113352659Y-128230042D01*
X113488213Y-128558109D01*
X113820144Y-128890619D01*
X114254054Y-129070794D01*
X114723885Y-129071204D01*
X115158109Y-128891787D01*
X115490619Y-128559856D01*
X115670794Y-128125946D01*
X115670795Y-128123885D01*
X148868796Y-128123885D01*
X149048213Y-128558109D01*
X149380144Y-128890619D01*
X149814054Y-129070794D01*
X150283885Y-129071204D01*
X150718109Y-128891787D01*
X151050619Y-128559856D01*
X151230794Y-128125946D01*
X151231204Y-127656115D01*
X151051787Y-127221891D01*
X150719856Y-126889381D01*
X150285946Y-126709206D01*
X149816115Y-126708796D01*
X149381891Y-126888213D01*
X149049381Y-127220144D01*
X148869206Y-127654054D01*
X148868796Y-128123885D01*
X115670795Y-128123885D01*
X115671204Y-127656115D01*
X115491787Y-127221891D01*
X115159856Y-126889381D01*
X114725946Y-126709206D01*
X114256115Y-126708796D01*
X113821891Y-126888213D01*
X113489381Y-127220144D01*
X113363896Y-127522346D01*
X113203864Y-127135995D01*
X112957745Y-127061861D01*
X112129605Y-127890000D01*
X111770395Y-127890000D01*
X110942255Y-127061861D01*
X110696136Y-127135995D01*
X110503035Y-127673223D01*
X109456000Y-127673223D01*
X109456000Y-125583885D01*
X110768796Y-125583885D01*
X110948213Y-126018109D01*
X111280144Y-126350619D01*
X111582346Y-126476104D01*
X111195995Y-126636136D01*
X111121861Y-126882255D01*
X111950000Y-127710395D01*
X112778139Y-126882255D01*
X112704005Y-126636136D01*
X112290042Y-126487341D01*
X112618109Y-126351787D01*
X112950619Y-126019856D01*
X113130794Y-125585946D01*
X113130795Y-125583885D01*
X113308796Y-125583885D01*
X113488213Y-126018109D01*
X113820144Y-126350619D01*
X114254054Y-126530794D01*
X114723885Y-126531204D01*
X115158109Y-126351787D01*
X115490619Y-126019856D01*
X115670794Y-125585946D01*
X115670795Y-125583885D01*
X148868796Y-125583885D01*
X149048213Y-126018109D01*
X149380144Y-126350619D01*
X149814054Y-126530794D01*
X150283885Y-126531204D01*
X150718109Y-126351787D01*
X151050619Y-126019856D01*
X151230794Y-125585946D01*
X151231204Y-125116115D01*
X151051787Y-124681891D01*
X150719856Y-124349381D01*
X150285946Y-124169206D01*
X149816115Y-124168796D01*
X149381891Y-124348213D01*
X149049381Y-124680144D01*
X148869206Y-125114054D01*
X148868796Y-125583885D01*
X115670795Y-125583885D01*
X115671204Y-125116115D01*
X115491787Y-124681891D01*
X115159856Y-124349381D01*
X114725946Y-124169206D01*
X114256115Y-124168796D01*
X113821891Y-124348213D01*
X113489381Y-124680144D01*
X113309206Y-125114054D01*
X113308796Y-125583885D01*
X113130795Y-125583885D01*
X113131204Y-125116115D01*
X112951787Y-124681891D01*
X112619856Y-124349381D01*
X112185946Y-124169206D01*
X111716115Y-124168796D01*
X111281891Y-124348213D01*
X110949381Y-124680144D01*
X110769206Y-125114054D01*
X110768796Y-125583885D01*
X109456000Y-125583885D01*
X109456000Y-123043885D01*
X110768796Y-123043885D01*
X110948213Y-123478109D01*
X111280144Y-123810619D01*
X111714054Y-123990794D01*
X112183885Y-123991204D01*
X112618109Y-123811787D01*
X112950619Y-123479856D01*
X113130794Y-123045946D01*
X113130795Y-123043885D01*
X113308796Y-123043885D01*
X113488213Y-123478109D01*
X113820144Y-123810619D01*
X114254054Y-123990794D01*
X114723885Y-123991204D01*
X115158109Y-123811787D01*
X115490619Y-123479856D01*
X115670794Y-123045946D01*
X115670795Y-123043885D01*
X148868796Y-123043885D01*
X149048213Y-123478109D01*
X149380144Y-123810619D01*
X149814054Y-123990794D01*
X150283885Y-123991204D01*
X150718109Y-123811787D01*
X151050619Y-123479856D01*
X151076985Y-123416359D01*
X155066802Y-123416359D01*
X155240446Y-123836612D01*
X155561697Y-124158423D01*
X155981646Y-124332801D01*
X156436359Y-124333198D01*
X156856612Y-124159554D01*
X157178423Y-123838303D01*
X157352801Y-123418354D01*
X157353198Y-122963641D01*
X157179554Y-122543388D01*
X156858303Y-122221577D01*
X156438354Y-122047199D01*
X156244340Y-122047030D01*
X156557368Y-122031362D01*
X156941143Y-121872397D01*
X157010608Y-121630213D01*
X156210000Y-120829605D01*
X155409392Y-121630213D01*
X155478857Y-121872397D01*
X155976258Y-122049852D01*
X155563388Y-122220446D01*
X155241577Y-122541697D01*
X155067199Y-122961646D01*
X155066802Y-123416359D01*
X151076985Y-123416359D01*
X151230794Y-123045946D01*
X151231204Y-122576115D01*
X151051787Y-122141891D01*
X150719856Y-121809381D01*
X150285946Y-121629206D01*
X149816115Y-121628796D01*
X149381891Y-121808213D01*
X149049381Y-122140144D01*
X148869206Y-122574054D01*
X148868796Y-123043885D01*
X115670795Y-123043885D01*
X115671204Y-122576115D01*
X115491787Y-122141891D01*
X115159856Y-121809381D01*
X114725946Y-121629206D01*
X114256115Y-121628796D01*
X113821891Y-121808213D01*
X113489381Y-122140144D01*
X113309206Y-122574054D01*
X113308796Y-123043885D01*
X113130795Y-123043885D01*
X113131204Y-122576115D01*
X112951787Y-122141891D01*
X112619856Y-121809381D01*
X112317654Y-121683896D01*
X112704005Y-121523864D01*
X112778139Y-121277745D01*
X111950000Y-120449605D01*
X111121861Y-121277745D01*
X111195995Y-121523864D01*
X111609958Y-121672659D01*
X111281891Y-121808213D01*
X110949381Y-122140144D01*
X110769206Y-122574054D01*
X110768796Y-123043885D01*
X109456000Y-123043885D01*
X109456000Y-120053223D01*
X110503035Y-120053223D01*
X110530222Y-120623454D01*
X110696136Y-121024005D01*
X110942255Y-121098139D01*
X111770395Y-120270000D01*
X112129605Y-120270000D01*
X112957745Y-121098139D01*
X113203864Y-121024005D01*
X113352659Y-120610042D01*
X113488213Y-120938109D01*
X113820144Y-121270619D01*
X114254054Y-121450794D01*
X114723885Y-121451204D01*
X115158109Y-121271787D01*
X115490619Y-120939856D01*
X115670794Y-120505946D01*
X115670795Y-120503885D01*
X148868796Y-120503885D01*
X149048213Y-120938109D01*
X149380144Y-121270619D01*
X149814054Y-121450794D01*
X150283885Y-121451204D01*
X150718109Y-121271787D01*
X151050619Y-120939856D01*
X151230794Y-120505946D01*
X151230849Y-120442302D01*
X154800856Y-120442302D01*
X154828638Y-120997368D01*
X154987603Y-121381143D01*
X155229787Y-121450608D01*
X156030395Y-120650000D01*
X156389605Y-120650000D01*
X157190213Y-121450608D01*
X157432397Y-121381143D01*
X157543402Y-121070000D01*
X181641536Y-121070000D01*
X181641536Y-122770000D01*
X181668103Y-122911190D01*
X181751546Y-123040865D01*
X181878866Y-123127859D01*
X182030000Y-123158464D01*
X183730000Y-123158464D01*
X183871190Y-123131897D01*
X184000865Y-123048454D01*
X184087859Y-122921134D01*
X184118464Y-122770000D01*
X184118464Y-121070000D01*
X184091897Y-120928810D01*
X184008454Y-120799135D01*
X183881134Y-120712141D01*
X183730000Y-120681536D01*
X182030000Y-120681536D01*
X181888810Y-120708103D01*
X181759135Y-120791546D01*
X181672141Y-120918866D01*
X181641536Y-121070000D01*
X157543402Y-121070000D01*
X157619144Y-120857698D01*
X157591362Y-120302632D01*
X157432397Y-119918857D01*
X157190213Y-119849392D01*
X156389605Y-120650000D01*
X156030395Y-120650000D01*
X155229787Y-119849392D01*
X154987603Y-119918857D01*
X154800856Y-120442302D01*
X151230849Y-120442302D01*
X151231204Y-120036115D01*
X151051787Y-119601891D01*
X150719856Y-119269381D01*
X150285946Y-119089206D01*
X149816115Y-119088796D01*
X149381891Y-119268213D01*
X149049381Y-119600144D01*
X148869206Y-120034054D01*
X148868796Y-120503885D01*
X115670795Y-120503885D01*
X115671204Y-120036115D01*
X115491787Y-119601891D01*
X115159856Y-119269381D01*
X114725946Y-119089206D01*
X114256115Y-119088796D01*
X113821891Y-119268213D01*
X113489381Y-119600144D01*
X113363896Y-119902346D01*
X113203864Y-119515995D01*
X112957745Y-119441861D01*
X112129605Y-120270000D01*
X111770395Y-120270000D01*
X110942255Y-119441861D01*
X110696136Y-119515995D01*
X110503035Y-120053223D01*
X109456000Y-120053223D01*
X109456000Y-117963885D01*
X110768796Y-117963885D01*
X110948213Y-118398109D01*
X111280144Y-118730619D01*
X111582346Y-118856104D01*
X111195995Y-119016136D01*
X111121861Y-119262255D01*
X111950000Y-120090395D01*
X112778139Y-119262255D01*
X112704005Y-119016136D01*
X112290042Y-118867341D01*
X112618109Y-118731787D01*
X112950619Y-118399856D01*
X113130794Y-117965946D01*
X113130795Y-117963885D01*
X113308796Y-117963885D01*
X113488213Y-118398109D01*
X113820144Y-118730619D01*
X114254054Y-118910794D01*
X114723885Y-118911204D01*
X115158109Y-118731787D01*
X115490619Y-118399856D01*
X115670794Y-117965946D01*
X115670795Y-117963885D01*
X148868796Y-117963885D01*
X149048213Y-118398109D01*
X149380144Y-118730619D01*
X149814054Y-118910794D01*
X150283885Y-118911204D01*
X150718109Y-118731787D01*
X151050619Y-118399856D01*
X151076985Y-118336359D01*
X155066802Y-118336359D01*
X155240446Y-118756612D01*
X155561697Y-119078423D01*
X155981646Y-119252801D01*
X156175660Y-119252970D01*
X155862632Y-119268638D01*
X155478857Y-119427603D01*
X155409392Y-119669787D01*
X156210000Y-120470395D01*
X157010608Y-119669787D01*
X156941143Y-119427603D01*
X156807714Y-119380000D01*
X181624883Y-119380000D01*
X181718587Y-119851083D01*
X181985435Y-120250448D01*
X182384800Y-120517296D01*
X182855883Y-120611000D01*
X182904117Y-120611000D01*
X183375200Y-120517296D01*
X183774565Y-120250448D01*
X184041413Y-119851083D01*
X184135117Y-119380000D01*
X184041413Y-118908917D01*
X183774565Y-118509552D01*
X183375200Y-118242704D01*
X182904117Y-118149000D01*
X182855883Y-118149000D01*
X182384800Y-118242704D01*
X181985435Y-118509552D01*
X181718587Y-118908917D01*
X181624883Y-119380000D01*
X156807714Y-119380000D01*
X156443742Y-119250148D01*
X156856612Y-119079554D01*
X157178423Y-118758303D01*
X157352801Y-118338354D01*
X157353198Y-117883641D01*
X157179554Y-117463388D01*
X156858303Y-117141577D01*
X156438354Y-116967199D01*
X156244340Y-116967030D01*
X156557368Y-116951362D01*
X156826219Y-116840000D01*
X181624883Y-116840000D01*
X181718587Y-117311083D01*
X181985435Y-117710448D01*
X182384800Y-117977296D01*
X182855883Y-118071000D01*
X182904117Y-118071000D01*
X183375200Y-117977296D01*
X183774565Y-117710448D01*
X184041413Y-117311083D01*
X184135117Y-116840000D01*
X184041413Y-116368917D01*
X183774565Y-115969552D01*
X183375200Y-115702704D01*
X182904117Y-115609000D01*
X182855883Y-115609000D01*
X182384800Y-115702704D01*
X181985435Y-115969552D01*
X181718587Y-116368917D01*
X181624883Y-116840000D01*
X156826219Y-116840000D01*
X156941143Y-116792397D01*
X157010608Y-116550213D01*
X156210000Y-115749605D01*
X155409392Y-116550213D01*
X155478857Y-116792397D01*
X155976258Y-116969852D01*
X155563388Y-117140446D01*
X155241577Y-117461697D01*
X155067199Y-117881646D01*
X155066802Y-118336359D01*
X151076985Y-118336359D01*
X151230794Y-117965946D01*
X151231204Y-117496115D01*
X151051787Y-117061891D01*
X150719856Y-116729381D01*
X150285946Y-116549206D01*
X149816115Y-116548796D01*
X149381891Y-116728213D01*
X149049381Y-117060144D01*
X148869206Y-117494054D01*
X148868796Y-117963885D01*
X115670795Y-117963885D01*
X115671204Y-117496115D01*
X115491787Y-117061891D01*
X115159856Y-116729381D01*
X114857654Y-116603896D01*
X115244005Y-116443864D01*
X115318139Y-116197745D01*
X114490000Y-115369605D01*
X113661861Y-116197745D01*
X113735995Y-116443864D01*
X114149958Y-116592659D01*
X113821891Y-116728213D01*
X113489381Y-117060144D01*
X113309206Y-117494054D01*
X113308796Y-117963885D01*
X113130795Y-117963885D01*
X113131204Y-117496115D01*
X112951787Y-117061891D01*
X112619856Y-116729381D01*
X112185946Y-116549206D01*
X111716115Y-116548796D01*
X111281891Y-116728213D01*
X110949381Y-117060144D01*
X110769206Y-117494054D01*
X110768796Y-117963885D01*
X109456000Y-117963885D01*
X109456000Y-115423885D01*
X110768796Y-115423885D01*
X110948213Y-115858109D01*
X111280144Y-116190619D01*
X111714054Y-116370794D01*
X112183885Y-116371204D01*
X112618109Y-116191787D01*
X112950619Y-115859856D01*
X113076104Y-115557654D01*
X113236136Y-115944005D01*
X113482255Y-116018139D01*
X114310395Y-115190000D01*
X114669605Y-115190000D01*
X115497745Y-116018139D01*
X115743864Y-115944005D01*
X115930815Y-115423885D01*
X148868796Y-115423885D01*
X149048213Y-115858109D01*
X149380144Y-116190619D01*
X149814054Y-116370794D01*
X150283885Y-116371204D01*
X150718109Y-116191787D01*
X151050619Y-115859856D01*
X151230794Y-115425946D01*
X151230849Y-115362302D01*
X154800856Y-115362302D01*
X154828638Y-115917368D01*
X154987603Y-116301143D01*
X155229787Y-116370608D01*
X156030395Y-115570000D01*
X156389605Y-115570000D01*
X157190213Y-116370608D01*
X157432397Y-116301143D01*
X157619144Y-115777698D01*
X157591362Y-115222632D01*
X157432397Y-114838857D01*
X157190213Y-114769392D01*
X156389605Y-115570000D01*
X156030395Y-115570000D01*
X155229787Y-114769392D01*
X154987603Y-114838857D01*
X154800856Y-115362302D01*
X151230849Y-115362302D01*
X151231204Y-114956115D01*
X151051787Y-114521891D01*
X150719856Y-114189381D01*
X150285946Y-114009206D01*
X149816115Y-114008796D01*
X149381891Y-114188213D01*
X149049381Y-114520144D01*
X148869206Y-114954054D01*
X148868796Y-115423885D01*
X115930815Y-115423885D01*
X115936965Y-115406777D01*
X115909778Y-114836546D01*
X115743864Y-114435995D01*
X115497745Y-114361861D01*
X114669605Y-115190000D01*
X114310395Y-115190000D01*
X113482255Y-114361861D01*
X113236136Y-114435995D01*
X113087341Y-114849958D01*
X112951787Y-114521891D01*
X112619856Y-114189381D01*
X112185946Y-114009206D01*
X111716115Y-114008796D01*
X111281891Y-114188213D01*
X110949381Y-114520144D01*
X110769206Y-114954054D01*
X110768796Y-115423885D01*
X109456000Y-115423885D01*
X109456000Y-112883885D01*
X110768796Y-112883885D01*
X110948213Y-113318109D01*
X111280144Y-113650619D01*
X111714054Y-113830794D01*
X112183885Y-113831204D01*
X112618109Y-113651787D01*
X112950619Y-113319856D01*
X113130794Y-112885946D01*
X113130795Y-112883885D01*
X113308796Y-112883885D01*
X113488213Y-113318109D01*
X113820144Y-113650619D01*
X114122346Y-113776104D01*
X113735995Y-113936136D01*
X113661861Y-114182255D01*
X114490000Y-115010395D01*
X115318139Y-114182255D01*
X115244005Y-113936136D01*
X114830042Y-113787341D01*
X115158109Y-113651787D01*
X115490619Y-113319856D01*
X115670794Y-112885946D01*
X115670795Y-112883885D01*
X148868796Y-112883885D01*
X149048213Y-113318109D01*
X149380144Y-113650619D01*
X149814054Y-113830794D01*
X150283885Y-113831204D01*
X150718109Y-113651787D01*
X151050619Y-113319856D01*
X151076985Y-113256359D01*
X155066802Y-113256359D01*
X155240446Y-113676612D01*
X155561697Y-113998423D01*
X155981646Y-114172801D01*
X156175660Y-114172970D01*
X155862632Y-114188638D01*
X155478857Y-114347603D01*
X155409392Y-114589787D01*
X156210000Y-115390395D01*
X157010608Y-114589787D01*
X156941143Y-114347603D01*
X156443742Y-114170148D01*
X156856612Y-113999554D01*
X157178423Y-113678303D01*
X157237512Y-113536000D01*
X180390877Y-113536000D01*
X180461741Y-113606987D01*
X180711946Y-113710882D01*
X180982865Y-113711118D01*
X181233252Y-113607661D01*
X181424987Y-113416259D01*
X181528882Y-113166054D01*
X181529118Y-112895135D01*
X181425661Y-112644748D01*
X181234259Y-112453013D01*
X180984054Y-112349118D01*
X180713135Y-112348882D01*
X180462748Y-112452339D01*
X180390962Y-112524000D01*
X157237653Y-112524000D01*
X157179554Y-112383388D01*
X156858303Y-112061577D01*
X156438354Y-111887199D01*
X155983641Y-111886802D01*
X155563388Y-112060446D01*
X155241577Y-112381697D01*
X155067199Y-112801646D01*
X155066802Y-113256359D01*
X151076985Y-113256359D01*
X151230794Y-112885946D01*
X151231204Y-112416115D01*
X151051787Y-111981891D01*
X150719856Y-111649381D01*
X150285946Y-111469206D01*
X149816115Y-111468796D01*
X149381891Y-111648213D01*
X149049381Y-111980144D01*
X148869206Y-112414054D01*
X148868796Y-112883885D01*
X115670795Y-112883885D01*
X115671204Y-112416115D01*
X115491787Y-111981891D01*
X115159856Y-111649381D01*
X114725946Y-111469206D01*
X114256115Y-111468796D01*
X113821891Y-111648213D01*
X113489381Y-111980144D01*
X113309206Y-112414054D01*
X113308796Y-112883885D01*
X113130795Y-112883885D01*
X113131204Y-112416115D01*
X112951787Y-111981891D01*
X112619856Y-111649381D01*
X112317654Y-111523896D01*
X112704005Y-111363864D01*
X112778139Y-111117745D01*
X111950000Y-110289605D01*
X111121861Y-111117745D01*
X111195995Y-111363864D01*
X111609958Y-111512659D01*
X111281891Y-111648213D01*
X110949381Y-111980144D01*
X110769206Y-112414054D01*
X110768796Y-112883885D01*
X109456000Y-112883885D01*
X109456000Y-109893223D01*
X110503035Y-109893223D01*
X110530222Y-110463454D01*
X110696136Y-110864005D01*
X110942255Y-110938139D01*
X111770395Y-110110000D01*
X112129605Y-110110000D01*
X112957745Y-110938139D01*
X113203864Y-110864005D01*
X113352659Y-110450042D01*
X113488213Y-110778109D01*
X113820144Y-111110619D01*
X114254054Y-111290794D01*
X114723885Y-111291204D01*
X115158109Y-111111787D01*
X115490619Y-110779856D01*
X115670794Y-110345946D01*
X115671204Y-109876115D01*
X115491787Y-109441891D01*
X115159856Y-109109381D01*
X114725946Y-108929206D01*
X114256115Y-108928796D01*
X113821891Y-109108213D01*
X113489381Y-109440144D01*
X113363896Y-109742346D01*
X113203864Y-109355995D01*
X112957745Y-109281861D01*
X112129605Y-110110000D01*
X111770395Y-110110000D01*
X110942255Y-109281861D01*
X110696136Y-109355995D01*
X110503035Y-109893223D01*
X109456000Y-109893223D01*
X109456000Y-107803885D01*
X110768796Y-107803885D01*
X110948213Y-108238109D01*
X111280144Y-108570619D01*
X111582346Y-108696104D01*
X111195995Y-108856136D01*
X111121861Y-109102255D01*
X111950000Y-109930395D01*
X112778139Y-109102255D01*
X112704005Y-108856136D01*
X112290042Y-108707341D01*
X112618109Y-108571787D01*
X112950619Y-108239856D01*
X113130794Y-107805946D01*
X113130795Y-107803885D01*
X113308796Y-107803885D01*
X113488213Y-108238109D01*
X113820144Y-108570619D01*
X114254054Y-108750794D01*
X114723885Y-108751204D01*
X115158109Y-108571787D01*
X115490619Y-108239856D01*
X115670794Y-107805946D01*
X115671204Y-107336115D01*
X115491787Y-106901891D01*
X115159856Y-106569381D01*
X114725946Y-106389206D01*
X114256115Y-106388796D01*
X113821891Y-106568213D01*
X113489381Y-106900144D01*
X113309206Y-107334054D01*
X113308796Y-107803885D01*
X113130795Y-107803885D01*
X113131204Y-107336115D01*
X112951787Y-106901891D01*
X112619856Y-106569381D01*
X112185946Y-106389206D01*
X111716115Y-106388796D01*
X111281891Y-106568213D01*
X110949381Y-106900144D01*
X110769206Y-107334054D01*
X110768796Y-107803885D01*
X109456000Y-107803885D01*
X109456000Y-105263885D01*
X110768796Y-105263885D01*
X110948213Y-105698109D01*
X111280144Y-106030619D01*
X111714054Y-106210794D01*
X112183885Y-106211204D01*
X112618109Y-106031787D01*
X112950619Y-105699856D01*
X113130794Y-105265946D01*
X113130795Y-105263885D01*
X113308796Y-105263885D01*
X113488213Y-105698109D01*
X113820144Y-106030619D01*
X114254054Y-106210794D01*
X114723885Y-106211204D01*
X115158109Y-106031787D01*
X115490619Y-105699856D01*
X115670794Y-105265946D01*
X115671204Y-104796115D01*
X115491787Y-104361891D01*
X115159856Y-104029381D01*
X114725946Y-103849206D01*
X114256115Y-103848796D01*
X113821891Y-104028213D01*
X113489381Y-104360144D01*
X113309206Y-104794054D01*
X113308796Y-105263885D01*
X113130795Y-105263885D01*
X113131204Y-104796115D01*
X112951787Y-104361891D01*
X112619856Y-104029381D01*
X112185946Y-103849206D01*
X111716115Y-103848796D01*
X111281891Y-104028213D01*
X110949381Y-104360144D01*
X110769206Y-104794054D01*
X110768796Y-105263885D01*
X109456000Y-105263885D01*
X109456000Y-85224865D01*
X112602882Y-85224865D01*
X112706339Y-85475252D01*
X112897741Y-85666987D01*
X113147946Y-85770882D01*
X113418865Y-85771118D01*
X113669252Y-85667661D01*
X113860987Y-85476259D01*
X113964882Y-85226054D01*
X113965104Y-84970865D01*
X120730882Y-84970865D01*
X120781000Y-85092161D01*
X120781000Y-101851818D01*
X120731118Y-101971946D01*
X120730882Y-102242865D01*
X120834339Y-102493252D01*
X121025741Y-102684987D01*
X121275946Y-102788882D01*
X121546865Y-102789118D01*
X121797252Y-102685661D01*
X121988987Y-102494259D01*
X122092882Y-102244054D01*
X122093118Y-101973135D01*
X122043000Y-101851839D01*
X122043000Y-85092182D01*
X122092882Y-84972054D01*
X122093118Y-84701135D01*
X121989661Y-84450748D01*
X121798259Y-84259013D01*
X121548054Y-84155118D01*
X121277135Y-84154882D01*
X121026748Y-84258339D01*
X120835013Y-84449741D01*
X120731118Y-84699946D01*
X120730882Y-84970865D01*
X113965104Y-84970865D01*
X113965118Y-84955135D01*
X113861661Y-84704748D01*
X113790000Y-84632962D01*
X113790000Y-81160865D01*
X120222882Y-81160865D01*
X120326339Y-81411252D01*
X120517741Y-81602987D01*
X120767946Y-81706882D01*
X120869378Y-81706970D01*
X121031297Y-81868889D01*
X121023135Y-81868882D01*
X120772748Y-81972339D01*
X120581013Y-82163741D01*
X120477118Y-82413946D01*
X120476882Y-82684865D01*
X120580339Y-82935252D01*
X120771741Y-83126987D01*
X121021946Y-83230882D01*
X121123378Y-83230970D01*
X145622969Y-107730561D01*
X145622882Y-107830865D01*
X145726339Y-108081252D01*
X145917741Y-108272987D01*
X146167946Y-108376882D01*
X146438865Y-108377118D01*
X146689252Y-108273661D01*
X146880987Y-108082259D01*
X146984882Y-107832054D01*
X146984890Y-107822482D01*
X148918280Y-109755872D01*
X148869206Y-109874054D01*
X148868796Y-110343885D01*
X149048213Y-110778109D01*
X149380144Y-111110619D01*
X149814054Y-111290794D01*
X150283885Y-111291204D01*
X150718109Y-111111787D01*
X151050619Y-110779856D01*
X151076985Y-110716359D01*
X155066802Y-110716359D01*
X155240446Y-111136612D01*
X155561697Y-111458423D01*
X155981646Y-111632801D01*
X156436359Y-111633198D01*
X156856612Y-111459554D01*
X157178423Y-111138303D01*
X157352801Y-110718354D01*
X157353198Y-110263641D01*
X157179554Y-109843388D01*
X156858303Y-109521577D01*
X156438354Y-109347199D01*
X155983641Y-109346802D01*
X155563388Y-109520446D01*
X155241577Y-109841697D01*
X155067199Y-110261646D01*
X155066802Y-110716359D01*
X151076985Y-110716359D01*
X151230794Y-110345946D01*
X151231204Y-109876115D01*
X151051787Y-109441891D01*
X150719856Y-109109381D01*
X150285946Y-108929206D01*
X149816115Y-108928796D01*
X149608268Y-109014676D01*
X148397477Y-107803885D01*
X148868796Y-107803885D01*
X149048213Y-108238109D01*
X149380144Y-108570619D01*
X149814054Y-108750794D01*
X150283885Y-108751204D01*
X150718109Y-108571787D01*
X151050619Y-108239856D01*
X151076985Y-108176359D01*
X155066802Y-108176359D01*
X155240446Y-108596612D01*
X155561697Y-108918423D01*
X155981646Y-109092801D01*
X156436359Y-109093198D01*
X156856612Y-108919554D01*
X157178423Y-108598303D01*
X157352801Y-108178354D01*
X157353198Y-107723641D01*
X157179554Y-107303388D01*
X156858303Y-106981577D01*
X156438354Y-106807199D01*
X155983641Y-106806802D01*
X155563388Y-106980446D01*
X155241577Y-107301697D01*
X155067199Y-107721646D01*
X155066802Y-108176359D01*
X151076985Y-108176359D01*
X151230794Y-107805946D01*
X151231204Y-107336115D01*
X151051787Y-106901891D01*
X150719856Y-106569381D01*
X150285946Y-106389206D01*
X149816115Y-106388796D01*
X149381891Y-106568213D01*
X149049381Y-106900144D01*
X148869206Y-107334054D01*
X148868796Y-107803885D01*
X148397477Y-107803885D01*
X145857477Y-105263885D01*
X148868796Y-105263885D01*
X149048213Y-105698109D01*
X149380144Y-106030619D01*
X149814054Y-106210794D01*
X150283885Y-106211204D01*
X150718109Y-106031787D01*
X151050619Y-105699856D01*
X151076985Y-105636359D01*
X155066802Y-105636359D01*
X155240446Y-106056612D01*
X155561697Y-106378423D01*
X155981646Y-106552801D01*
X156436359Y-106553198D01*
X156856612Y-106379554D01*
X157178423Y-106058303D01*
X157352801Y-105638354D01*
X157353198Y-105183641D01*
X157179554Y-104763388D01*
X156858303Y-104441577D01*
X156438354Y-104267199D01*
X155983641Y-104266802D01*
X155563388Y-104440446D01*
X155241577Y-104761697D01*
X155067199Y-105181646D01*
X155066802Y-105636359D01*
X151076985Y-105636359D01*
X151230794Y-105265946D01*
X151231204Y-104796115D01*
X151051787Y-104361891D01*
X150719856Y-104029381D01*
X150285946Y-103849206D01*
X149816115Y-103848796D01*
X149381891Y-104028213D01*
X149049381Y-104360144D01*
X148869206Y-104794054D01*
X148868796Y-105263885D01*
X145857477Y-105263885D01*
X132168457Y-91574865D01*
X137494882Y-91574865D01*
X137598339Y-91825252D01*
X137789741Y-92016987D01*
X138039946Y-92120882D01*
X138310865Y-92121118D01*
X138561252Y-92017661D01*
X138633038Y-91946000D01*
X156514877Y-91946000D01*
X156585741Y-92016987D01*
X156835946Y-92120882D01*
X157106865Y-92121118D01*
X157357252Y-92017661D01*
X157548987Y-91826259D01*
X157652882Y-91576054D01*
X157653118Y-91305135D01*
X157549661Y-91054748D01*
X157358259Y-90863013D01*
X157108054Y-90759118D01*
X156837135Y-90758882D01*
X156586748Y-90862339D01*
X156514962Y-90934000D01*
X155571076Y-90934000D01*
X155620882Y-90814054D01*
X155621118Y-90543135D01*
X155517661Y-90292748D01*
X155326259Y-90101013D01*
X155076054Y-89997118D01*
X154805135Y-89996882D01*
X154554748Y-90100339D01*
X154482962Y-90172000D01*
X153869031Y-90172000D01*
X153992987Y-90048259D01*
X154096882Y-89798054D01*
X154097118Y-89527135D01*
X153993661Y-89276748D01*
X153802259Y-89085013D01*
X153552054Y-88981118D01*
X153281135Y-88980882D01*
X153030748Y-89084339D01*
X152958962Y-89156000D01*
X140919123Y-89156000D01*
X140848259Y-89085013D01*
X140598054Y-88981118D01*
X140327135Y-88980882D01*
X140076748Y-89084339D01*
X139885013Y-89275741D01*
X139781118Y-89525946D01*
X139780882Y-89796865D01*
X139884339Y-90047252D01*
X140008870Y-90172000D01*
X139903123Y-90172000D01*
X139832259Y-90101013D01*
X139582054Y-89997118D01*
X139311135Y-89996882D01*
X139060748Y-90100339D01*
X138869013Y-90291741D01*
X138765118Y-90541946D01*
X138764882Y-90812865D01*
X138814934Y-90934000D01*
X138633123Y-90934000D01*
X138562259Y-90863013D01*
X138312054Y-90759118D01*
X138041135Y-90758882D01*
X137790748Y-90862339D01*
X137599013Y-91053741D01*
X137495118Y-91303946D01*
X137494882Y-91574865D01*
X132168457Y-91574865D01*
X121585031Y-80991439D01*
X121585118Y-80891135D01*
X121481661Y-80640748D01*
X121290259Y-80449013D01*
X121040054Y-80345118D01*
X120769135Y-80344882D01*
X120518748Y-80448339D01*
X120327013Y-80639741D01*
X120223118Y-80889946D01*
X120222882Y-81160865D01*
X113790000Y-81160865D01*
X113790000Y-77722000D01*
X114100969Y-77722000D01*
X113977013Y-77845741D01*
X113873118Y-78095946D01*
X113872882Y-78366865D01*
X113976339Y-78617252D01*
X114167741Y-78808987D01*
X114417946Y-78912882D01*
X114688865Y-78913118D01*
X114810161Y-78863000D01*
X131310632Y-78863000D01*
X138491816Y-86044184D01*
X138696526Y-86180968D01*
X138736589Y-86188937D01*
X138938000Y-86229000D01*
X139951818Y-86229000D01*
X140071946Y-86278882D01*
X140342865Y-86279118D01*
X140593252Y-86175661D01*
X140784987Y-85984259D01*
X140832343Y-85870213D01*
X168469392Y-85870213D01*
X168538857Y-86112397D01*
X169062302Y-86299144D01*
X169617368Y-86271362D01*
X170001143Y-86112397D01*
X170070608Y-85870213D01*
X171009392Y-85870213D01*
X171078857Y-86112397D01*
X171602302Y-86299144D01*
X172157368Y-86271362D01*
X172541143Y-86112397D01*
X172610608Y-85870213D01*
X171810000Y-85069605D01*
X171009392Y-85870213D01*
X170070608Y-85870213D01*
X169270000Y-85069605D01*
X168469392Y-85870213D01*
X140832343Y-85870213D01*
X140888882Y-85734054D01*
X140889118Y-85463135D01*
X140785661Y-85212748D01*
X140594259Y-85021013D01*
X140344054Y-84917118D01*
X140073135Y-84916882D01*
X139951839Y-84967000D01*
X139199368Y-84967000D01*
X138914670Y-84682302D01*
X167860856Y-84682302D01*
X167888638Y-85237368D01*
X168047603Y-85621143D01*
X168289787Y-85690608D01*
X169090395Y-84890000D01*
X169449605Y-84890000D01*
X170250213Y-85690608D01*
X170492397Y-85621143D01*
X170536453Y-85497656D01*
X170587603Y-85621143D01*
X170829787Y-85690608D01*
X171630395Y-84890000D01*
X171989605Y-84890000D01*
X172790213Y-85690608D01*
X173032397Y-85621143D01*
X173212486Y-85116359D01*
X178286802Y-85116359D01*
X178460446Y-85536612D01*
X178781697Y-85858423D01*
X179201646Y-86032801D01*
X179656359Y-86033198D01*
X180076612Y-85859554D01*
X180398423Y-85538303D01*
X180572801Y-85118354D01*
X180572802Y-85116359D01*
X180826802Y-85116359D01*
X181000446Y-85536612D01*
X181321697Y-85858423D01*
X181741646Y-86032801D01*
X182196359Y-86033198D01*
X182616612Y-85859554D01*
X182938423Y-85538303D01*
X183112801Y-85118354D01*
X183113198Y-84663641D01*
X182939554Y-84243388D01*
X182618303Y-83921577D01*
X182198354Y-83747199D01*
X181743641Y-83746802D01*
X181323388Y-83920446D01*
X181001577Y-84241697D01*
X180827199Y-84661646D01*
X180826802Y-85116359D01*
X180572802Y-85116359D01*
X180573198Y-84663641D01*
X180399554Y-84243388D01*
X180078303Y-83921577D01*
X179658354Y-83747199D01*
X179203641Y-83746802D01*
X178783388Y-83920446D01*
X178461577Y-84241697D01*
X178287199Y-84661646D01*
X178286802Y-85116359D01*
X173212486Y-85116359D01*
X173219144Y-85097698D01*
X173191362Y-84542632D01*
X173032397Y-84158857D01*
X172790213Y-84089392D01*
X171989605Y-84890000D01*
X171630395Y-84890000D01*
X170829787Y-84089392D01*
X170587603Y-84158857D01*
X170543547Y-84282344D01*
X170492397Y-84158857D01*
X170250213Y-84089392D01*
X169449605Y-84890000D01*
X169090395Y-84890000D01*
X168289787Y-84089392D01*
X168047603Y-84158857D01*
X167860856Y-84682302D01*
X138914670Y-84682302D01*
X137679233Y-83446865D01*
X139780882Y-83446865D01*
X139884339Y-83697252D01*
X140075741Y-83888987D01*
X140325946Y-83992882D01*
X140596865Y-83993118D01*
X140847252Y-83889661D01*
X141038987Y-83698259D01*
X141142882Y-83448054D01*
X141142970Y-83346622D01*
X141316099Y-83173493D01*
X147528761Y-83173493D01*
X147738563Y-83681251D01*
X148126705Y-84070072D01*
X148634097Y-84280759D01*
X149183493Y-84281239D01*
X149691251Y-84071437D01*
X150080072Y-83683295D01*
X150226684Y-83330213D01*
X168469392Y-83330213D01*
X168538857Y-83572397D01*
X168662344Y-83616453D01*
X168538857Y-83667603D01*
X168469392Y-83909787D01*
X169270000Y-84710395D01*
X170070608Y-83909787D01*
X171009392Y-83909787D01*
X171810000Y-84710395D01*
X172610608Y-83909787D01*
X172541143Y-83667603D01*
X172017698Y-83480856D01*
X171462632Y-83508638D01*
X171078857Y-83667603D01*
X171009392Y-83909787D01*
X170070608Y-83909787D01*
X170001143Y-83667603D01*
X169877656Y-83623547D01*
X170001143Y-83572397D01*
X170070608Y-83330213D01*
X169270000Y-82529605D01*
X168469392Y-83330213D01*
X150226684Y-83330213D01*
X150290759Y-83175903D01*
X150291239Y-82626507D01*
X150091169Y-82142302D01*
X167860856Y-82142302D01*
X167888638Y-82697368D01*
X168047603Y-83081143D01*
X168289787Y-83150608D01*
X169090395Y-82350000D01*
X169449605Y-82350000D01*
X170250213Y-83150608D01*
X170492397Y-83081143D01*
X170672486Y-82576359D01*
X180826802Y-82576359D01*
X181000446Y-82996612D01*
X181321697Y-83318423D01*
X181741646Y-83492801D01*
X182196359Y-83493198D01*
X182616612Y-83319554D01*
X182938423Y-82998303D01*
X182997512Y-82856000D01*
X183140408Y-82856000D01*
X183494000Y-83209592D01*
X183494000Y-98542877D01*
X183423013Y-98613741D01*
X183319118Y-98863946D01*
X183318882Y-99134865D01*
X183422339Y-99385252D01*
X183613741Y-99576987D01*
X183863946Y-99680882D01*
X184134865Y-99681118D01*
X184385252Y-99577661D01*
X184576987Y-99386259D01*
X184680882Y-99136054D01*
X184681118Y-98865135D01*
X184577661Y-98614748D01*
X184506000Y-98542962D01*
X184506000Y-83000000D01*
X184467483Y-82806362D01*
X184357796Y-82642204D01*
X183707796Y-81992204D01*
X183543638Y-81882517D01*
X183350000Y-81844000D01*
X182997653Y-81844000D01*
X182939554Y-81703388D01*
X182618303Y-81381577D01*
X182198354Y-81207199D01*
X181743641Y-81206802D01*
X181323388Y-81380446D01*
X181001577Y-81701697D01*
X180827199Y-82121646D01*
X180826802Y-82576359D01*
X170672486Y-82576359D01*
X170679144Y-82557698D01*
X170651362Y-82002632D01*
X170492397Y-81618857D01*
X170250213Y-81549392D01*
X169449605Y-82350000D01*
X169090395Y-82350000D01*
X168289787Y-81549392D01*
X168047603Y-81618857D01*
X167860856Y-82142302D01*
X150091169Y-82142302D01*
X150081437Y-82118749D01*
X149693295Y-81729928D01*
X149185903Y-81519241D01*
X148636507Y-81518761D01*
X148128749Y-81728563D01*
X147739928Y-82116705D01*
X147529241Y-82624097D01*
X147528761Y-83173493D01*
X141316099Y-83173493D01*
X143119805Y-81369787D01*
X168469392Y-81369787D01*
X169270000Y-82170395D01*
X170070608Y-81369787D01*
X170001143Y-81127603D01*
X169477698Y-80940856D01*
X168922632Y-80968638D01*
X168538857Y-81127603D01*
X168469392Y-81369787D01*
X143119805Y-81369787D01*
X144453233Y-80036359D01*
X180826802Y-80036359D01*
X181000446Y-80456612D01*
X181321697Y-80778423D01*
X181741646Y-80952801D01*
X182196359Y-80953198D01*
X182616612Y-80779554D01*
X182938423Y-80458303D01*
X183112801Y-80038354D01*
X183113198Y-79583641D01*
X182939554Y-79163388D01*
X182618303Y-78841577D01*
X182198354Y-78667199D01*
X181743641Y-78666802D01*
X181323388Y-78840446D01*
X181001577Y-79161697D01*
X180827199Y-79581646D01*
X180826802Y-80036359D01*
X144453233Y-80036359D01*
X146993233Y-77496359D01*
X180826802Y-77496359D01*
X181000446Y-77916612D01*
X181321697Y-78238423D01*
X181741646Y-78412801D01*
X182196359Y-78413198D01*
X182616612Y-78239554D01*
X182938423Y-77918303D01*
X183112801Y-77498354D01*
X183113198Y-77043641D01*
X182939554Y-76623388D01*
X182618303Y-76301577D01*
X182198354Y-76127199D01*
X181743641Y-76126802D01*
X181323388Y-76300446D01*
X181001577Y-76621697D01*
X180827199Y-77041646D01*
X180826802Y-77496359D01*
X146993233Y-77496359D01*
X153859379Y-70630213D01*
X168469392Y-70630213D01*
X168538857Y-70872397D01*
X169062302Y-71059144D01*
X169617368Y-71031362D01*
X170001143Y-70872397D01*
X170070608Y-70630213D01*
X169270000Y-69829605D01*
X168469392Y-70630213D01*
X153859379Y-70630213D01*
X154027796Y-70461796D01*
X154035272Y-70450608D01*
X154137483Y-70297638D01*
X154176000Y-70104000D01*
X154176000Y-69442302D01*
X167860856Y-69442302D01*
X167888638Y-69997368D01*
X168047603Y-70381143D01*
X168289787Y-70450608D01*
X169090395Y-69650000D01*
X169449605Y-69650000D01*
X170250213Y-70450608D01*
X170492397Y-70381143D01*
X170679144Y-69857698D01*
X170651362Y-69302632D01*
X170492397Y-68918857D01*
X170250213Y-68849392D01*
X169449605Y-69650000D01*
X169090395Y-69650000D01*
X168289787Y-68849392D01*
X168047603Y-68918857D01*
X167860856Y-69442302D01*
X154176000Y-69442302D01*
X154176000Y-69037123D01*
X154246987Y-68966259D01*
X154350882Y-68716054D01*
X154351118Y-68445135D01*
X154247661Y-68194748D01*
X154056259Y-68003013D01*
X153806054Y-67899118D01*
X153535135Y-67898882D01*
X153284748Y-68002339D01*
X153093013Y-68193741D01*
X152989118Y-68443946D01*
X152988882Y-68714865D01*
X153092339Y-68965252D01*
X153164000Y-69037038D01*
X153164000Y-69894408D01*
X140427439Y-82630969D01*
X140327135Y-82630882D01*
X140076748Y-82734339D01*
X139885013Y-82925741D01*
X139781118Y-83175946D01*
X139780882Y-83446865D01*
X137679233Y-83446865D01*
X132018184Y-77785816D01*
X131813473Y-77649032D01*
X131572000Y-77601000D01*
X127831510Y-77601000D01*
X127934882Y-77352054D01*
X127935118Y-77081135D01*
X127831661Y-76830748D01*
X127640259Y-76639013D01*
X127390054Y-76535118D01*
X127119135Y-76534882D01*
X126868748Y-76638339D01*
X126796962Y-76710000D01*
X113284000Y-76710000D01*
X113090362Y-76748517D01*
X112926204Y-76858204D01*
X112816517Y-77022362D01*
X112778000Y-77216000D01*
X112778000Y-84632877D01*
X112707013Y-84703741D01*
X112603118Y-84953946D01*
X112602882Y-85224865D01*
X109456000Y-85224865D01*
X109456000Y-75064865D01*
X115650882Y-75064865D01*
X115754339Y-75315252D01*
X115945741Y-75506987D01*
X116195946Y-75610882D01*
X116466865Y-75611118D01*
X116717252Y-75507661D01*
X116789038Y-75436000D01*
X129844877Y-75436000D01*
X129915741Y-75506987D01*
X130165946Y-75610882D01*
X130436865Y-75611118D01*
X130687252Y-75507661D01*
X130878987Y-75316259D01*
X130982882Y-75066054D01*
X130983118Y-74795135D01*
X130879661Y-74544748D01*
X130688259Y-74353013D01*
X130438054Y-74249118D01*
X130167135Y-74248882D01*
X129916748Y-74352339D01*
X129844962Y-74424000D01*
X116789123Y-74424000D01*
X116718259Y-74353013D01*
X116468054Y-74249118D01*
X116197135Y-74248882D01*
X115946748Y-74352339D01*
X115755013Y-74543741D01*
X115651118Y-74793946D01*
X115650882Y-75064865D01*
X109456000Y-75064865D01*
X109456000Y-67437856D01*
X159203704Y-67437856D01*
X159462880Y-68065109D01*
X159942367Y-68545433D01*
X160569167Y-68805704D01*
X161247856Y-68806296D01*
X161875109Y-68547120D01*
X162332813Y-68090213D01*
X168469392Y-68090213D01*
X168538857Y-68332397D01*
X168662344Y-68376453D01*
X168538857Y-68427603D01*
X168469392Y-68669787D01*
X169270000Y-69470395D01*
X170070608Y-68669787D01*
X170001143Y-68427603D01*
X169877656Y-68383547D01*
X170001143Y-68332397D01*
X170070608Y-68090213D01*
X171009392Y-68090213D01*
X171078857Y-68332397D01*
X171602302Y-68519144D01*
X172157368Y-68491362D01*
X172541143Y-68332397D01*
X172610608Y-68090213D01*
X171810000Y-67289605D01*
X171009392Y-68090213D01*
X170070608Y-68090213D01*
X169270000Y-67289605D01*
X168469392Y-68090213D01*
X162332813Y-68090213D01*
X162355433Y-68067633D01*
X162615704Y-67440833D01*
X162616173Y-66902302D01*
X167860856Y-66902302D01*
X167888638Y-67457368D01*
X168047603Y-67841143D01*
X168289787Y-67910608D01*
X169090395Y-67110000D01*
X169449605Y-67110000D01*
X170250213Y-67910608D01*
X170492397Y-67841143D01*
X170536453Y-67717656D01*
X170587603Y-67841143D01*
X170829787Y-67910608D01*
X171630395Y-67110000D01*
X171989605Y-67110000D01*
X172790213Y-67910608D01*
X173032397Y-67841143D01*
X173212486Y-67336359D01*
X178286802Y-67336359D01*
X178460446Y-67756612D01*
X178781697Y-68078423D01*
X179201646Y-68252801D01*
X179656359Y-68253198D01*
X180076612Y-68079554D01*
X180398423Y-67758303D01*
X180572801Y-67338354D01*
X180572802Y-67336359D01*
X180826802Y-67336359D01*
X181000446Y-67756612D01*
X181321697Y-68078423D01*
X181741646Y-68252801D01*
X182196359Y-68253198D01*
X182616612Y-68079554D01*
X182938423Y-67758303D01*
X183112801Y-67338354D01*
X183113198Y-66883641D01*
X182939554Y-66463388D01*
X182618303Y-66141577D01*
X182198354Y-65967199D01*
X181743641Y-65966802D01*
X181323388Y-66140446D01*
X181001577Y-66461697D01*
X180827199Y-66881646D01*
X180826802Y-67336359D01*
X180572802Y-67336359D01*
X180573198Y-66883641D01*
X180399554Y-66463388D01*
X180078303Y-66141577D01*
X179658354Y-65967199D01*
X179203641Y-65966802D01*
X178783388Y-66140446D01*
X178461577Y-66461697D01*
X178287199Y-66881646D01*
X178286802Y-67336359D01*
X173212486Y-67336359D01*
X173219144Y-67317698D01*
X173191362Y-66762632D01*
X173032397Y-66378857D01*
X172790213Y-66309392D01*
X171989605Y-67110000D01*
X171630395Y-67110000D01*
X170829787Y-66309392D01*
X170587603Y-66378857D01*
X170543547Y-66502344D01*
X170492397Y-66378857D01*
X170250213Y-66309392D01*
X169449605Y-67110000D01*
X169090395Y-67110000D01*
X168289787Y-66309392D01*
X168047603Y-66378857D01*
X167860856Y-66902302D01*
X162616173Y-66902302D01*
X162616296Y-66762144D01*
X162357120Y-66134891D01*
X162352025Y-66129787D01*
X168469392Y-66129787D01*
X169270000Y-66930395D01*
X170070608Y-66129787D01*
X171009392Y-66129787D01*
X171810000Y-66930395D01*
X172610608Y-66129787D01*
X172541143Y-65887603D01*
X172017698Y-65700856D01*
X171462632Y-65728638D01*
X171078857Y-65887603D01*
X171009392Y-66129787D01*
X170070608Y-66129787D01*
X170001143Y-65887603D01*
X169477698Y-65700856D01*
X168922632Y-65728638D01*
X168538857Y-65887603D01*
X168469392Y-66129787D01*
X162352025Y-66129787D01*
X161877633Y-65654567D01*
X161250833Y-65394296D01*
X160572144Y-65393704D01*
X159944891Y-65652880D01*
X159464567Y-66132367D01*
X159204296Y-66759167D01*
X159203704Y-67437856D01*
X109456000Y-67437856D01*
X109456000Y-60000000D01*
X110044000Y-60000000D01*
X110192892Y-60748529D01*
X110616899Y-61383101D01*
X111251471Y-61807108D01*
X112000000Y-61956000D01*
X112748529Y-61807108D01*
X113383101Y-61383101D01*
X113807108Y-60748529D01*
X113956000Y-60000000D01*
X182044000Y-60000000D01*
X182192892Y-60748529D01*
X182616899Y-61383101D01*
X183251471Y-61807108D01*
X184000000Y-61956000D01*
X184748529Y-61807108D01*
X185383101Y-61383101D01*
X185807108Y-60748529D01*
X185956000Y-60000000D01*
X185807108Y-59251471D01*
X185383101Y-58616899D01*
X184748529Y-58192892D01*
X184000000Y-58044000D01*
X183251471Y-58192892D01*
X182616899Y-58616899D01*
X182192892Y-59251471D01*
X182044000Y-60000000D01*
X113956000Y-60000000D01*
X113807108Y-59251471D01*
X113383101Y-58616899D01*
X112748529Y-58192892D01*
X112000000Y-58044000D01*
X111251471Y-58192892D01*
X110616899Y-58616899D01*
X110192892Y-59251471D01*
X110044000Y-60000000D01*
X109456000Y-60000000D01*
X109456000Y-57456000D01*
X186544000Y-57456000D01*
X186544000Y-140544000D01*
M02*
