G04 #@! TF.FileFunction,Soldermask,Top*
%FSLAX46Y46*%
G04 Gerber Fmt 4.6, Leading zero omitted, Abs format (unit mm)*
G04 Created by KiCad (PCBNEW 4.0.7) date *
%MOMM*%
%LPD*%
G01*
G04 APERTURE LIST*
%ADD10C,0.100000*%
%ADD11C,2.000000*%
%ADD12R,1.700000X1.900000*%
%ADD13R,1.800000X2.200000*%
%ADD14C,2.400000*%
%ADD15C,3.050000*%
%ADD16C,1.900000*%
%ADD17C,3.400000*%
%ADD18R,1.450000X2.600000*%
%ADD19R,1.400000X1.400000*%
%ADD20R,3.900000X3.900000*%
%ADD21R,1.000000X1.400000*%
%ADD22R,1.900000X1.700000*%
%ADD23R,2.500000X1.300000*%
%ADD24R,1.300000X2.500000*%
%ADD25R,2.100000X2.100000*%
%ADD26O,2.100000X2.100000*%
%ADD27C,1.924000*%
G04 APERTURE END LIST*
D10*
D11*
X111950000Y-105030000D03*
X114490000Y-105030000D03*
X111950000Y-107570000D03*
X114490000Y-107570000D03*
X111950000Y-110110000D03*
X111950000Y-112650000D03*
X111950000Y-115190000D03*
X111950000Y-117730000D03*
X111950000Y-120270000D03*
X111950000Y-122810000D03*
X111950000Y-125350000D03*
X111950000Y-127890000D03*
X111950000Y-130430000D03*
X111950000Y-132970000D03*
X114490000Y-110110000D03*
X114490000Y-112650000D03*
X114490000Y-115190000D03*
X114490000Y-117730000D03*
X114490000Y-120270000D03*
X114490000Y-122810000D03*
X114490000Y-125350000D03*
X114490000Y-127890000D03*
X114490000Y-130430000D03*
X114490000Y-132970000D03*
X150050000Y-105030000D03*
X150050000Y-107570000D03*
X150050000Y-110110000D03*
X150050000Y-112650000D03*
X150050000Y-115190000D03*
X150050000Y-117730000D03*
X150050000Y-120270000D03*
X150050000Y-122810000D03*
X150050000Y-125350000D03*
X150050000Y-127890000D03*
X150050000Y-130430000D03*
X150050000Y-132970000D03*
D12*
X112014000Y-78660000D03*
X112014000Y-81360000D03*
X112014000Y-91360000D03*
X112014000Y-94060000D03*
D13*
X158810000Y-87650000D03*
X156270000Y-87650000D03*
X153730000Y-87650000D03*
X158810000Y-62350000D03*
X156270000Y-62350000D03*
X153730000Y-62350000D03*
D14*
X148910000Y-82900000D03*
D15*
X160910000Y-67100000D03*
D16*
X166110000Y-134000000D03*
X163570000Y-134000000D03*
X161540000Y-134000000D03*
X159000000Y-134000000D03*
D17*
X169160000Y-136670000D03*
X155440000Y-136670000D03*
D18*
X119175000Y-62230000D03*
X122125000Y-62230000D03*
D19*
X120650000Y-60730000D03*
X120650000Y-63730000D03*
D18*
X136955000Y-62230000D03*
X139905000Y-62230000D03*
D19*
X138430000Y-60730000D03*
X138430000Y-63730000D03*
D18*
X128065000Y-62230000D03*
X131015000Y-62230000D03*
D19*
X129540000Y-60730000D03*
X129540000Y-63730000D03*
D20*
X179000000Y-132000000D03*
X179000000Y-138000000D03*
X183700000Y-135000000D03*
D21*
X113985000Y-73730000D03*
X112075000Y-73730000D03*
X113030000Y-76130000D03*
X113955000Y-86800000D03*
X112045000Y-86800000D03*
X113000000Y-89200000D03*
X182565000Y-106750000D03*
X180655000Y-106750000D03*
X181610000Y-109150000D03*
D22*
X176350000Y-62000000D03*
X173650000Y-62000000D03*
D12*
X181610000Y-100250000D03*
X181610000Y-102950000D03*
X114554000Y-83392000D03*
X114554000Y-80692000D03*
X114808000Y-95076000D03*
X114808000Y-92376000D03*
D23*
X118610000Y-72050000D03*
X118610000Y-73550000D03*
X118610000Y-75050000D03*
X118610000Y-76550000D03*
X118610000Y-78050000D03*
X118610000Y-79550000D03*
X118610000Y-81050000D03*
X118610000Y-82550000D03*
X118610000Y-84050000D03*
X118610000Y-85550000D03*
X118610000Y-87050000D03*
X118610000Y-88550000D03*
X118610000Y-90050000D03*
X118610000Y-91550000D03*
X118610000Y-93050000D03*
D24*
X121310000Y-95750000D03*
X122810000Y-95750000D03*
X124310000Y-95750000D03*
X125810000Y-95750000D03*
X127310000Y-95750000D03*
X128810000Y-95750000D03*
X130310000Y-95750000D03*
X131810000Y-95750000D03*
X133310000Y-95750000D03*
X134810000Y-95750000D03*
X136310000Y-95750000D03*
X137810000Y-95750000D03*
X139310000Y-95750000D03*
D23*
X143010000Y-93050000D03*
X143010000Y-91550000D03*
X143010000Y-90050000D03*
X143010000Y-88550000D03*
X143010000Y-87050000D03*
X143010000Y-85550000D03*
X143010000Y-84050000D03*
X143010000Y-82550000D03*
X143010000Y-81050000D03*
X143010000Y-79550000D03*
X143010000Y-78050000D03*
X143010000Y-76550000D03*
X143010000Y-75050000D03*
X143010000Y-73550000D03*
X143010000Y-72050000D03*
D24*
X139310000Y-69350000D03*
X137810000Y-69350000D03*
X136310000Y-69350000D03*
X134810000Y-69350000D03*
X133310000Y-69350000D03*
X131810000Y-69350000D03*
X130310000Y-69350000D03*
X128810000Y-69350000D03*
X127310000Y-69350000D03*
X125810000Y-69350000D03*
X124310000Y-69350000D03*
X122810000Y-69350000D03*
X121310000Y-69350000D03*
D25*
X182880000Y-121920000D03*
D26*
X182880000Y-119380000D03*
X182880000Y-116840000D03*
D27*
X156210000Y-123190000D03*
X156210000Y-120650000D03*
X156210000Y-118110000D03*
X156210000Y-115570000D03*
X156210000Y-113030000D03*
X156210000Y-110490000D03*
X156210000Y-107950000D03*
X156210000Y-105410000D03*
X169270000Y-84890000D03*
X171810000Y-84890000D03*
X179430000Y-84890000D03*
X181970000Y-84890000D03*
X181970000Y-82350000D03*
X181970000Y-79810000D03*
X181970000Y-77270000D03*
X181970000Y-67110000D03*
X179430000Y-67110000D03*
X171810000Y-67110000D03*
X169270000Y-67110000D03*
X169270000Y-69650000D03*
X169270000Y-82350000D03*
M02*
